<svg width="156" height="123" viewBox="0 0 156 123" fill="none" xmlns="http://www.w3.org/2000/svg">
<path d="M92.0497 122.514C89.1429 123.486 86.7205 123 84.7826 121.055C83.8137 118.138 84.2981 115.708 86.236 113.763C109.491 100.15 124.509 81.6759 131.292 58.34C120.634 63.2016 111.429 62.7154 103.677 56.8814C96.8944 50.0751 93.9876 41.3241 94.9565 30.6285C95.9255 20.9051 99.8012 13.6126 106.584 8.75096C113.366 2.91699 120.149 0 126.932 0C134.683 0 141.466 2.43083 147.279 7.29248C153.093 12.1541 156 19.9328 156 30.6285C154.062 49.1028 146.795 66.6048 134.199 83.1344C122.571 99.664 108.522 112.791 92.0497 122.514ZM7.75155 122.514C4.84472 123.486 2.42236 123 0.484471 121.055C-0.484472 118.138 1.2032e-06 115.708 1.93789 113.763C25.1925 100.15 40.2112 81.6759 46.9938 58.34C36.3354 63.2016 27.1304 62.7154 19.3789 56.8814C12.5963 50.0751 9.68944 41.3241 10.6584 30.6285C11.6273 20.9051 15.5031 13.6126 22.2857 8.75096C29.0683 2.91699 35.8509 0 42.6335 0C50.3851 0 57.1677 2.43083 62.9814 7.29248C68.795 12.1541 71.7019 19.9328 71.7019 30.6285C69.764 49.1028 62.4969 66.6048 49.9006 83.1344C38.2733 99.664 24.2236 112.791 7.75155 122.514Z" fill="#70B0C4" fill-opacity="0.1"/>
</svg>
