<svg width="420" height="20" viewBox="0 0 420 20" fill="none" xmlns="http://www.w3.org/2000/svg">
<path d="M12.8887 16H12.0987C12.0053 16 11.9287 15.9767 11.8687 15.93C11.8087 15.8767 11.762 15.81 11.7287 15.73L10.0587 11.62H3.10867L1.44867 15.73C1.42201 15.8033 1.37534 15.8667 1.30867 15.92C1.24201 15.9733 1.16201 16 1.06867 16H0.288672L6.07867 1.85H7.09867L12.8887 16ZM3.41867 10.86H9.75867L6.86867 3.71C6.82201 3.59667 6.77534 3.47 6.72867 3.33C6.68201 3.18333 6.63534 3.03 6.58867 2.87C6.54201 3.03 6.49534 3.18333 6.44867 3.33C6.40201 3.47 6.35534 3.6 6.30867 3.72L3.41867 10.86ZM21.6993 16C21.5326 16 21.436 15.9133 21.4093 15.74L21.3093 14.17C20.8693 14.77 20.3526 15.2467 19.7593 15.6C19.1726 15.9533 18.5126 16.13 17.7793 16.13C16.5593 16.13 15.606 15.7067 14.9193 14.86C14.2393 14.0133 13.8993 12.7433 13.8993 11.05C13.8993 10.3233 13.9926 9.64667 14.1793 9.02C14.3726 8.38667 14.6526 7.84 15.0193 7.38C15.3926 6.91333 15.846 6.54667 16.3793 6.28C16.9193 6.01333 17.5393 5.88 18.2393 5.88C18.9126 5.88 19.496 6.00667 19.9893 6.26C20.4826 6.50667 20.9093 6.87 21.2693 7.35V1.45H22.2293V16H21.6993ZM18.0493 15.36C18.7093 15.36 19.306 15.19 19.8393 14.85C20.3726 14.51 20.8493 14.0367 21.2693 13.43V8.18C20.8826 7.61333 20.456 7.21333 19.9893 6.98C19.5293 6.74667 19.006 6.63 18.4193 6.63C17.8326 6.63 17.3193 6.73667 16.8793 6.95C16.4393 7.16333 16.0693 7.46667 15.7693 7.86C15.476 8.24667 15.2526 8.71333 15.0993 9.26C14.9526 9.8 14.8793 10.3967 14.8793 11.05C14.8793 12.53 15.1526 13.62 15.6993 14.32C16.246 15.0133 17.0293 15.36 18.0493 15.36ZM29.2373 16H28.3973L24.1973 6.05H24.9473C25.0406 6.05 25.1139 6.07667 25.1673 6.13C25.2273 6.17667 25.2706 6.23 25.2973 6.29L28.5773 14.14C28.6439 14.2933 28.6939 14.44 28.7273 14.58C28.7606 14.72 28.7939 14.86 28.8273 15C28.8606 14.86 28.8939 14.72 28.9273 14.58C28.9673 14.4333 29.0173 14.2867 29.0773 14.14L32.3773 6.29C32.4106 6.21667 32.4539 6.16 32.5073 6.12C32.5673 6.07333 32.6373 6.05 32.7173 6.05H33.4373L29.2373 16ZM38.9276 5.89C39.6409 5.89 40.2776 6.01333 40.8376 6.26C41.4042 6.5 41.8809 6.84333 42.2676 7.29C42.6542 7.73667 42.9476 8.27667 43.1476 8.91C43.3542 9.53667 43.4576 10.24 43.4576 11.02C43.4576 11.8 43.3542 12.5033 43.1476 13.13C42.9476 13.7567 42.6542 14.2933 42.2676 14.74C41.8809 15.1867 41.4042 15.53 40.8376 15.77C40.2776 16.01 39.6409 16.13 38.9276 16.13C38.2142 16.13 37.5742 16.01 37.0076 15.77C36.4476 15.53 35.9709 15.1867 35.5776 14.74C35.1909 14.2933 34.8942 13.7567 34.6876 13.13C34.4876 12.5033 34.3876 11.8 34.3876 11.02C34.3876 10.24 34.4876 9.53667 34.6876 8.91C34.8942 8.27667 35.1909 7.73667 35.5776 7.29C35.9709 6.84333 36.4476 6.5 37.0076 6.26C37.5742 6.01333 38.2142 5.89 38.9276 5.89ZM38.9276 15.38C39.5209 15.38 40.0376 15.28 40.4776 15.08C40.9242 14.8733 41.2942 14.58 41.5876 14.2C41.8876 13.82 42.1109 13.3633 42.2576 12.83C42.4042 12.29 42.4776 11.6867 42.4776 11.02C42.4776 10.36 42.4042 9.76 42.2576 9.22C42.1109 8.68 41.8876 8.22 41.5876 7.84C41.2942 7.45333 40.9242 7.15667 40.4776 6.95C40.0376 6.74333 39.5209 6.64 38.9276 6.64C38.3342 6.64 37.8142 6.74333 37.3676 6.95C36.9276 7.15667 36.5576 7.45333 36.2576 7.84C35.9642 8.22 35.7409 8.68 35.5876 9.22C35.4409 9.76 35.3676 10.36 35.3676 11.02C35.3676 11.6867 35.4409 12.29 35.5876 12.83C35.7409 13.3633 35.9642 13.82 36.2576 14.2C36.5576 14.58 36.9276 14.8733 37.3676 15.08C37.8142 15.28 38.3342 15.38 38.9276 15.38ZM49.2379 5.88C49.6712 5.88 50.0712 5.93333 50.4379 6.04C50.8112 6.14667 51.1446 6.29667 51.4379 6.49H53.9879V6.82C53.9879 6.98667 53.8946 7.07667 53.7079 7.09L52.1979 7.2C52.3846 7.45333 52.5279 7.74 52.6279 8.06C52.7279 8.37333 52.7779 8.71 52.7779 9.07C52.7779 9.55 52.6912 9.98667 52.5179 10.38C52.3446 10.7667 52.1012 11.1 51.7879 11.38C51.4812 11.6533 51.1112 11.8667 50.6779 12.02C50.2446 12.1733 49.7646 12.25 49.2379 12.25C48.6646 12.25 48.1446 12.1633 47.6779 11.99C47.3979 12.15 47.1779 12.34 47.0179 12.56C46.8579 12.78 46.7779 12.9933 46.7779 13.2C46.7779 13.4867 46.8779 13.7067 47.0779 13.86C47.2779 14.0133 47.5412 14.1267 47.8679 14.2C48.2012 14.2667 48.5779 14.31 48.9979 14.33C49.4246 14.35 49.8546 14.3733 50.2879 14.4C50.7279 14.42 51.1579 14.46 51.5779 14.52C52.0046 14.58 52.3812 14.6867 52.7079 14.84C53.0412 14.9867 53.3079 15.1967 53.5079 15.47C53.7079 15.7367 53.8079 16.0933 53.8079 16.54C53.8079 16.9533 53.7046 17.35 53.4979 17.73C53.2912 18.11 52.9912 18.4467 52.5979 18.74C52.2112 19.0333 51.7412 19.2667 51.1879 19.44C50.6346 19.62 50.0146 19.71 49.3279 19.71C48.6279 19.71 48.0146 19.6367 47.4879 19.49C46.9612 19.35 46.5179 19.1567 46.1579 18.91C45.8046 18.67 45.5379 18.39 45.3579 18.07C45.1779 17.75 45.0879 17.41 45.0879 17.05C45.0879 16.5233 45.2612 16.07 45.6079 15.69C45.9546 15.31 46.4312 15.0167 47.0379 14.81C46.7046 14.6967 46.4379 14.5333 46.2379 14.32C46.0446 14.1067 45.9479 13.81 45.9479 13.43C45.9479 13.29 45.9746 13.1433 46.0279 12.99C46.0812 12.8367 46.1612 12.6867 46.2679 12.54C46.3746 12.3867 46.5012 12.2433 46.6479 12.11C46.8012 11.9767 46.9779 11.8567 47.1779 11.75C46.7046 11.4767 46.3346 11.1133 46.0679 10.66C45.8079 10.2067 45.6779 9.67667 45.6779 9.07C45.6779 8.59 45.7612 8.15667 45.9279 7.77C46.1012 7.37667 46.3412 7.04 46.6479 6.76C46.9612 6.48 47.3379 6.26333 47.7779 6.11C48.2179 5.95667 48.7046 5.88 49.2379 5.88ZM52.9279 16.67C52.9279 16.3567 52.8446 16.1067 52.6779 15.92C52.5179 15.7267 52.3012 15.5767 52.0279 15.47C51.7546 15.3633 51.4379 15.29 51.0779 15.25C50.7246 15.2033 50.3512 15.17 49.9579 15.15C49.5712 15.13 49.1812 15.11 48.7879 15.09C48.3946 15.07 48.0279 15.03 47.6879 14.97C47.4346 15.07 47.1979 15.1867 46.9779 15.32C46.7646 15.4467 46.5812 15.5933 46.4279 15.76C46.2746 15.92 46.1546 16.0967 46.0679 16.29C45.9812 16.49 45.9379 16.7067 45.9379 16.94C45.9379 17.2333 46.0112 17.5033 46.1579 17.75C46.3112 18.0033 46.5312 18.22 46.8179 18.4C47.1112 18.5867 47.4679 18.7333 47.8879 18.84C48.3079 18.9467 48.7912 19 49.3379 19C49.8446 19 50.3146 18.9433 50.7479 18.83C51.1879 18.7167 51.5679 18.5567 51.8879 18.35C52.2146 18.1433 52.4679 17.8967 52.6479 17.61C52.8346 17.3233 52.9279 17.01 52.9279 16.67ZM49.2379 11.6C49.6646 11.6 50.0446 11.54 50.3779 11.42C50.7112 11.2933 50.9912 11.12 51.2179 10.9C51.4446 10.68 51.6146 10.4167 51.7279 10.11C51.8479 9.80333 51.9079 9.46333 51.9079 9.09C51.9079 8.71667 51.8479 8.37667 51.7279 8.07C51.6079 7.75667 51.4312 7.49 51.1979 7.27C50.9712 7.05 50.6912 6.88 50.3579 6.76C50.0312 6.64 49.6579 6.58 49.2379 6.58C48.8179 6.58 48.4412 6.64 48.1079 6.76C47.7746 6.88 47.4912 7.05 47.2579 7.27C47.0312 7.49 46.8579 7.75667 46.7379 8.07C46.6179 8.37667 46.5579 8.71667 46.5579 9.09C46.5579 9.46333 46.6179 9.80333 46.7379 10.11C46.8579 10.4167 47.0312 10.68 47.2579 10.9C47.4912 11.12 47.7746 11.2933 48.1079 11.42C48.4412 11.54 48.8179 11.6 49.2379 11.6ZM62.4055 16C62.2055 16 62.0822 15.9067 62.0355 15.72L61.8955 14.45C61.6222 14.7167 61.3489 14.9567 61.0755 15.17C60.8089 15.3833 60.5289 15.5633 60.2355 15.71C59.9422 15.8567 59.6255 15.9667 59.2855 16.04C58.9455 16.12 58.5722 16.16 58.1655 16.16C57.8255 16.16 57.4955 16.11 57.1755 16.01C56.8555 15.91 56.5722 15.7567 56.3255 15.55C56.0789 15.3433 55.8789 15.08 55.7255 14.76C55.5789 14.4333 55.5055 14.0433 55.5055 13.59C55.5055 13.17 55.6255 12.78 55.8655 12.42C56.1055 12.06 56.4789 11.7467 56.9855 11.48C57.4989 11.2133 58.1555 11 58.9555 10.84C59.7622 10.68 60.7289 10.5867 61.8555 10.56V9.52C61.8555 8.6 61.6555 7.89333 61.2555 7.4C60.8622 6.9 60.2755 6.65 59.4955 6.65C59.0155 6.65 58.6055 6.71667 58.2655 6.85C57.9322 6.98333 57.6489 7.13 57.4155 7.29C57.1822 7.45 56.9922 7.59667 56.8455 7.73C56.6989 7.86333 56.5755 7.93 56.4755 7.93C56.3422 7.93 56.2422 7.87 56.1755 7.75L56.0055 7.46C56.5255 6.94 57.0722 6.54667 57.6455 6.28C58.2189 6.01333 58.8689 5.88 59.5955 5.88C60.1289 5.88 60.5955 5.96667 60.9955 6.14C61.3955 6.30667 61.7255 6.55 61.9855 6.87C62.2522 7.18333 62.4522 7.56667 62.5855 8.02C62.7189 8.46667 62.7855 8.96667 62.7855 9.52V16H62.4055ZM58.4055 15.47C58.7922 15.47 59.1455 15.43 59.4655 15.35C59.7922 15.2633 60.0922 15.1467 60.3655 15C60.6455 14.8467 60.9055 14.6667 61.1455 14.46C61.3855 14.2533 61.6222 14.03 61.8555 13.79V11.2C60.9089 11.2267 60.0922 11.3 59.4055 11.42C58.7255 11.5333 58.1622 11.69 57.7155 11.89C57.2755 12.09 56.9489 12.33 56.7355 12.61C56.5289 12.8833 56.4255 13.1967 56.4255 13.55C56.4255 13.8833 56.4789 14.1733 56.5855 14.42C56.6989 14.66 56.8455 14.86 57.0255 15.02C57.2055 15.1733 57.4155 15.2867 57.6555 15.36C57.8955 15.4333 58.1455 15.47 58.4055 15.47ZM72.8321 16C72.6654 16 72.5688 15.9133 72.5421 15.74L72.4421 14.17C72.0021 14.77 71.4854 15.2467 70.8921 15.6C70.3054 15.9533 69.6454 16.13 68.9121 16.13C67.6921 16.13 66.7388 15.7067 66.0521 14.86C65.3721 14.0133 65.0321 12.7433 65.0321 11.05C65.0321 10.3233 65.1254 9.64667 65.3121 9.02C65.5054 8.38667 65.7854 7.84 66.1521 7.38C66.5254 6.91333 66.9788 6.54667 67.5121 6.28C68.0521 6.01333 68.6721 5.88 69.3721 5.88C70.0454 5.88 70.6288 6.00667 71.1221 6.26C71.6154 6.50667 72.0421 6.87 72.4021 7.35V1.45H73.3621V16H72.8321ZM69.1821 15.36C69.8421 15.36 70.4388 15.19 70.9721 14.85C71.5054 14.51 71.9821 14.0367 72.4021 13.43V8.18C72.0154 7.61333 71.5888 7.21333 71.1221 6.98C70.6621 6.74667 70.1388 6.63 69.5521 6.63C68.9654 6.63 68.4521 6.73667 68.0121 6.95C67.5721 7.16333 67.2021 7.46667 66.9021 7.86C66.6088 8.24667 66.3854 8.71333 66.2321 9.26C66.0854 9.8 66.0121 10.3967 66.0121 11.05C66.0121 12.53 66.2854 13.62 66.8321 14.32C67.3788 15.0133 68.1621 15.36 69.1821 15.36ZM80.4901 5.89C81.2034 5.89 81.8401 6.01333 82.4001 6.26C82.9667 6.5 83.4434 6.84333 83.8301 7.29C84.2167 7.73667 84.5101 8.27667 84.7101 8.91C84.9167 9.53667 85.0201 10.24 85.0201 11.02C85.0201 11.8 84.9167 12.5033 84.7101 13.13C84.5101 13.7567 84.2167 14.2933 83.8301 14.74C83.4434 15.1867 82.9667 15.53 82.4001 15.77C81.8401 16.01 81.2034 16.13 80.4901 16.13C79.7767 16.13 79.1367 16.01 78.5701 15.77C78.0101 15.53 77.5334 15.1867 77.1401 14.74C76.7534 14.2933 76.4567 13.7567 76.2501 13.13C76.0501 12.5033 75.9501 11.8 75.9501 11.02C75.9501 10.24 76.0501 9.53667 76.2501 8.91C76.4567 8.27667 76.7534 7.73667 77.1401 7.29C77.5334 6.84333 78.0101 6.5 78.5701 6.26C79.1367 6.01333 79.7767 5.89 80.4901 5.89ZM80.4901 15.38C81.0834 15.38 81.6001 15.28 82.0401 15.08C82.4867 14.8733 82.8567 14.58 83.1501 14.2C83.4501 13.82 83.6734 13.3633 83.8201 12.83C83.9667 12.29 84.0401 11.6867 84.0401 11.02C84.0401 10.36 83.9667 9.76 83.8201 9.22C83.6734 8.68 83.4501 8.22 83.1501 7.84C82.8567 7.45333 82.4867 7.15667 82.0401 6.95C81.6001 6.74333 81.0834 6.64 80.4901 6.64C79.8967 6.64 79.3767 6.74333 78.9301 6.95C78.4901 7.15667 78.1201 7.45333 77.8201 7.84C77.5267 8.22 77.3034 8.68 77.1501 9.22C77.0034 9.76 76.9301 10.36 76.9301 11.02C76.9301 11.6867 77.0034 12.29 77.1501 12.83C77.3034 13.3633 77.5267 13.82 77.8201 14.2C78.1201 14.58 78.4901 14.8733 78.9301 15.08C79.3767 15.28 79.8967 15.38 80.4901 15.38ZM96.2548 0.829999H97.0048V19.52H96.2548V0.829999ZM109.965 1.85C110.059 1.85 110.132 1.86333 110.185 1.89C110.239 1.91 110.295 1.96 110.355 2.04L119.515 14.3C119.495 14.1 119.485 13.9067 119.485 13.72V1.85H120.385V16H119.895C119.742 16 119.619 15.9333 119.525 15.8L110.325 3.52C110.345 3.72 110.355 3.91 110.355 4.09V16H109.465V1.85H109.965ZM127.852 5.89C128.412 5.89 128.929 5.98667 129.402 6.18C129.882 6.37333 130.296 6.65667 130.642 7.03C130.996 7.39667 131.269 7.85 131.462 8.39C131.662 8.93 131.762 9.55 131.762 10.25C131.762 10.3967 131.739 10.4967 131.692 10.55C131.652 10.6033 131.586 10.63 131.492 10.63H124.302V10.82C124.302 11.5667 124.389 12.2233 124.562 12.79C124.736 13.3567 124.982 13.8333 125.302 14.22C125.622 14.6 126.009 14.8867 126.462 15.08C126.916 15.2733 127.422 15.37 127.982 15.37C128.482 15.37 128.916 15.3167 129.282 15.21C129.649 15.0967 129.956 14.9733 130.202 14.84C130.456 14.7 130.656 14.5767 130.802 14.47C130.949 14.3567 131.056 14.3 131.122 14.3C131.209 14.3 131.276 14.3333 131.322 14.4L131.582 14.72C131.422 14.92 131.209 15.1067 130.942 15.28C130.682 15.4533 130.389 15.6033 130.062 15.73C129.742 15.85 129.396 15.9467 129.022 16.02C128.656 16.0933 128.286 16.13 127.912 16.13C127.232 16.13 126.612 16.0133 126.052 15.78C125.492 15.54 125.012 15.1933 124.612 14.74C124.212 14.2867 123.902 13.7333 123.682 13.08C123.469 12.42 123.362 11.6667 123.362 10.82C123.362 10.1067 123.462 9.45 123.662 8.85C123.869 8.24333 124.162 7.72333 124.542 7.29C124.929 6.85 125.399 6.50667 125.952 6.26C126.512 6.01333 127.146 5.89 127.852 5.89ZM127.862 6.6C127.349 6.6 126.889 6.68 126.482 6.84C126.076 7 125.722 7.23 125.422 7.53C125.129 7.83 124.889 8.19 124.702 8.61C124.522 9.03 124.402 9.5 124.342 10.02H130.902C130.902 9.48667 130.829 9.01 130.682 8.59C130.536 8.16333 130.329 7.80333 130.062 7.51C129.796 7.21667 129.476 6.99333 129.102 6.84C128.729 6.68 128.316 6.6 127.862 6.6ZM135.547 1.45V16H134.597V1.45H135.547ZM144.543 7.28C144.497 7.37333 144.423 7.42 144.323 7.42C144.25 7.42 144.153 7.38 144.033 7.3C143.92 7.21333 143.767 7.12 143.573 7.02C143.387 6.91333 143.153 6.82 142.873 6.74C142.6 6.65333 142.263 6.61 141.863 6.61C141.503 6.61 141.173 6.66333 140.873 6.77C140.58 6.87 140.327 7.00667 140.113 7.18C139.907 7.35333 139.743 7.55667 139.623 7.79C139.51 8.01667 139.453 8.25667 139.453 8.51C139.453 8.82333 139.533 9.08333 139.693 9.29C139.853 9.49667 140.063 9.67333 140.323 9.82C140.583 9.96667 140.877 10.0933 141.203 10.2C141.537 10.3067 141.877 10.4133 142.223 10.52C142.57 10.6267 142.907 10.7467 143.233 10.88C143.567 11.0067 143.863 11.1667 144.123 11.36C144.383 11.5533 144.593 11.79 144.753 12.07C144.913 12.35 144.993 12.69 144.993 13.09C144.993 13.5233 144.913 13.9267 144.753 14.3C144.6 14.6733 144.373 14.9967 144.073 15.27C143.78 15.5433 143.417 15.76 142.983 15.92C142.55 16.08 142.057 16.16 141.503 16.16C140.803 16.16 140.2 16.05 139.693 15.83C139.187 15.6033 138.733 15.31 138.333 14.95L138.563 14.61C138.597 14.5567 138.633 14.5167 138.673 14.49C138.713 14.4633 138.77 14.45 138.843 14.45C138.93 14.45 139.037 14.5033 139.163 14.61C139.29 14.7167 139.453 14.8333 139.653 14.96C139.86 15.08 140.113 15.1933 140.413 15.3C140.72 15.4067 141.097 15.46 141.543 15.46C141.963 15.46 142.333 15.4033 142.653 15.29C142.973 15.17 143.24 15.01 143.453 14.81C143.667 14.61 143.827 14.3767 143.933 14.11C144.047 13.8367 144.103 13.55 144.103 13.25C144.103 12.9167 144.023 12.64 143.863 12.42C143.703 12.2 143.493 12.0133 143.233 11.86C142.973 11.7067 142.677 11.5767 142.343 11.47C142.017 11.3633 141.677 11.2567 141.323 11.15C140.977 11.0433 140.637 10.9267 140.303 10.8C139.977 10.6733 139.683 10.5133 139.423 10.32C139.163 10.1267 138.953 9.89333 138.793 9.62C138.633 9.34 138.553 8.99333 138.553 8.58C138.553 8.22667 138.63 7.88667 138.783 7.56C138.937 7.23333 139.153 6.94667 139.433 6.7C139.72 6.45333 140.067 6.25667 140.473 6.11C140.88 5.96333 141.337 5.89 141.843 5.89C142.45 5.89 142.987 5.97667 143.453 6.15C143.927 6.32333 144.36 6.59 144.753 6.95L144.543 7.28ZM151.447 5.89C152.16 5.89 152.797 6.01333 153.357 6.26C153.924 6.5 154.4 6.84333 154.787 7.29C155.174 7.73667 155.467 8.27667 155.667 8.91C155.874 9.53667 155.977 10.24 155.977 11.02C155.977 11.8 155.874 12.5033 155.667 13.13C155.467 13.7567 155.174 14.2933 154.787 14.74C154.4 15.1867 153.924 15.53 153.357 15.77C152.797 16.01 152.16 16.13 151.447 16.13C150.734 16.13 150.094 16.01 149.527 15.77C148.967 15.53 148.49 15.1867 148.097 14.74C147.71 14.2933 147.414 13.7567 147.207 13.13C147.007 12.5033 146.907 11.8 146.907 11.02C146.907 10.24 147.007 9.53667 147.207 8.91C147.414 8.27667 147.71 7.73667 148.097 7.29C148.49 6.84333 148.967 6.5 149.527 6.26C150.094 6.01333 150.734 5.89 151.447 5.89ZM151.447 15.38C152.04 15.38 152.557 15.28 152.997 15.08C153.444 14.8733 153.814 14.58 154.107 14.2C154.407 13.82 154.63 13.3633 154.777 12.83C154.924 12.29 154.997 11.6867 154.997 11.02C154.997 10.36 154.924 9.76 154.777 9.22C154.63 8.68 154.407 8.22 154.107 7.84C153.814 7.45333 153.444 7.15667 152.997 6.95C152.557 6.74333 152.04 6.64 151.447 6.64C150.854 6.64 150.334 6.74333 149.887 6.95C149.447 7.15667 149.077 7.45333 148.777 7.84C148.484 8.22 148.26 8.68 148.107 9.22C147.96 9.76 147.887 10.36 147.887 11.02C147.887 11.6867 147.96 12.29 148.107 12.83C148.26 13.3633 148.484 13.82 148.777 14.2C149.077 14.58 149.447 14.8733 149.887 15.08C150.334 15.28 150.854 15.38 151.447 15.38ZM158.477 16V6.05H158.997C159.171 6.05 159.271 6.13333 159.297 6.3L159.387 7.8C159.841 7.22667 160.367 6.76667 160.967 6.42C161.574 6.06667 162.247 5.89 162.987 5.89C163.534 5.89 164.014 5.97667 164.427 6.15C164.847 6.32333 165.194 6.57333 165.467 6.9C165.741 7.22667 165.947 7.62 166.087 8.08C166.227 8.54 166.297 9.06 166.297 9.64V16H165.347V9.64C165.347 8.70667 165.134 7.97667 164.707 7.45C164.281 6.91667 163.627 6.65 162.747 6.65C162.094 6.65 161.487 6.82 160.927 7.16C160.367 7.49333 159.867 7.95333 159.427 8.54V16H158.477ZM179.725 15.33C180.212 15.33 180.655 15.3067 181.055 15.26C181.455 15.2067 181.825 15.13 182.165 15.03C182.512 14.93 182.838 14.81 183.145 14.67C183.458 14.5233 183.772 14.36 184.085 14.18V10.37H181.365C181.292 10.37 181.228 10.3467 181.175 10.3C181.128 10.2533 181.105 10.2 181.105 10.14V9.58H185.015V14.61C184.662 14.8567 184.295 15.0767 183.915 15.27C183.535 15.4633 183.128 15.6267 182.695 15.76C182.262 15.8867 181.795 15.9833 181.295 16.05C180.795 16.1233 180.248 16.16 179.655 16.16C178.635 16.16 177.702 15.99 176.855 15.65C176.015 15.3033 175.292 14.8167 174.685 14.19C174.085 13.5567 173.618 12.7933 173.285 11.9C172.952 11.0067 172.785 10.0133 172.785 8.92C172.785 7.82667 172.952 6.83667 173.285 5.95C173.618 5.05667 174.092 4.29667 174.705 3.67C175.318 3.03667 176.062 2.55 176.935 2.21C177.815 1.86333 178.798 1.69 179.885 1.69C180.425 1.69 180.922 1.72667 181.375 1.8C181.835 1.87333 182.262 1.98333 182.655 2.13C183.048 2.27 183.415 2.44667 183.755 2.66C184.095 2.86667 184.422 3.10667 184.735 3.38L184.465 3.82C184.405 3.92 184.322 3.97 184.215 3.97C184.155 3.97 184.098 3.95667 184.045 3.93C183.945 3.89 183.798 3.79667 183.605 3.65C183.418 3.50333 183.162 3.35 182.835 3.19C182.515 3.03 182.112 2.88667 181.625 2.76C181.138 2.63333 180.548 2.57 179.855 2.57C178.935 2.57 178.105 2.71667 177.365 3.01C176.625 3.30333 175.992 3.72333 175.465 4.27C174.945 4.81667 174.542 5.48333 174.255 6.27C173.975 7.05667 173.835 7.94 173.835 8.92C173.835 9.92 173.978 10.8167 174.265 11.61C174.552 12.4033 174.952 13.0767 175.465 13.63C175.985 14.1767 176.605 14.5967 177.325 14.89C178.052 15.1833 178.852 15.33 179.725 15.33ZM194.476 16C194.276 16 194.153 15.9067 194.106 15.72L193.966 14.45C193.693 14.7167 193.419 14.9567 193.146 15.17C192.879 15.3833 192.599 15.5633 192.306 15.71C192.013 15.8567 191.696 15.9667 191.356 16.04C191.016 16.12 190.643 16.16 190.236 16.16C189.896 16.16 189.566 16.11 189.246 16.01C188.926 15.91 188.643 15.7567 188.396 15.55C188.149 15.3433 187.949 15.08 187.796 14.76C187.649 14.4333 187.576 14.0433 187.576 13.59C187.576 13.17 187.696 12.78 187.936 12.42C188.176 12.06 188.549 11.7467 189.056 11.48C189.569 11.2133 190.226 11 191.026 10.84C191.833 10.68 192.799 10.5867 193.926 10.56V9.52C193.926 8.6 193.726 7.89333 193.326 7.4C192.933 6.9 192.346 6.65 191.566 6.65C191.086 6.65 190.676 6.71667 190.336 6.85C190.003 6.98333 189.719 7.13 189.486 7.29C189.253 7.45 189.063 7.59667 188.916 7.73C188.769 7.86333 188.646 7.93 188.546 7.93C188.413 7.93 188.313 7.87 188.246 7.75L188.076 7.46C188.596 6.94 189.143 6.54667 189.716 6.28C190.289 6.01333 190.939 5.88 191.666 5.88C192.199 5.88 192.666 5.96667 193.066 6.14C193.466 6.30667 193.796 6.55 194.056 6.87C194.323 7.18333 194.523 7.56667 194.656 8.02C194.789 8.46667 194.856 8.96667 194.856 9.52V16H194.476ZM190.476 15.47C190.863 15.47 191.216 15.43 191.536 15.35C191.863 15.2633 192.163 15.1467 192.436 15C192.716 14.8467 192.976 14.6667 193.216 14.46C193.456 14.2533 193.693 14.03 193.926 13.79V11.2C192.979 11.2267 192.163 11.3 191.476 11.42C190.796 11.5333 190.233 11.69 189.786 11.89C189.346 12.09 189.019 12.33 188.806 12.61C188.599 12.8833 188.496 13.1967 188.496 13.55C188.496 13.8833 188.549 14.1733 188.656 14.42C188.769 14.66 188.916 14.86 189.096 15.02C189.276 15.1733 189.486 15.2867 189.726 15.36C189.966 15.4333 190.216 15.47 190.476 15.47ZM197.852 16V6.05H198.352C198.466 6.05 198.546 6.07333 198.592 6.12C198.646 6.16667 198.676 6.24667 198.682 6.36L198.762 8.46C199.082 7.65333 199.509 7.02333 200.042 6.57C200.576 6.11 201.232 5.88 202.012 5.88C202.312 5.88 202.589 5.91333 202.842 5.98C203.096 6.04 203.336 6.13 203.562 6.25L203.432 6.91C203.412 7.01667 203.346 7.07 203.232 7.07C203.192 7.07 203.136 7.05667 203.062 7.03C202.989 7.00333 202.896 6.97333 202.782 6.94C202.676 6.90667 202.542 6.87667 202.382 6.85C202.222 6.82333 202.039 6.81 201.832 6.81C201.079 6.81 200.459 7.04333 199.972 7.51C199.492 7.97667 199.102 8.65 198.802 9.53V16H197.852ZM209.552 5.89C210.112 5.89 210.628 5.98667 211.102 6.18C211.582 6.37333 211.995 6.65667 212.342 7.03C212.695 7.39667 212.968 7.85 213.162 8.39C213.362 8.93 213.462 9.55 213.462 10.25C213.462 10.3967 213.438 10.4967 213.392 10.55C213.352 10.6033 213.285 10.63 213.192 10.63H206.002V10.82C206.002 11.5667 206.088 12.2233 206.262 12.79C206.435 13.3567 206.682 13.8333 207.002 14.22C207.322 14.6 207.708 14.8867 208.162 15.08C208.615 15.2733 209.122 15.37 209.682 15.37C210.182 15.37 210.615 15.3167 210.982 15.21C211.348 15.0967 211.655 14.9733 211.902 14.84C212.155 14.7 212.355 14.5767 212.502 14.47C212.648 14.3567 212.755 14.3 212.822 14.3C212.908 14.3 212.975 14.3333 213.022 14.4L213.282 14.72C213.122 14.92 212.908 15.1067 212.642 15.28C212.382 15.4533 212.088 15.6033 211.762 15.73C211.442 15.85 211.095 15.9467 210.722 16.02C210.355 16.0933 209.985 16.13 209.612 16.13C208.932 16.13 208.312 16.0133 207.752 15.78C207.192 15.54 206.712 15.1933 206.312 14.74C205.912 14.2867 205.602 13.7333 205.382 13.08C205.168 12.42 205.062 11.6667 205.062 10.82C205.062 10.1067 205.162 9.45 205.362 8.85C205.568 8.24333 205.862 7.72333 206.242 7.29C206.628 6.85 207.098 6.50667 207.652 6.26C208.212 6.01333 208.845 5.89 209.552 5.89ZM209.562 6.6C209.048 6.6 208.588 6.68 208.182 6.84C207.775 7 207.422 7.23 207.122 7.53C206.828 7.83 206.588 8.19 206.402 8.61C206.222 9.03 206.102 9.5 206.042 10.02H212.602C212.602 9.48667 212.528 9.01 212.382 8.59C212.235 8.16333 212.028 7.80333 211.762 7.51C211.495 7.21667 211.175 6.99333 210.802 6.84C210.428 6.68 210.015 6.6 209.562 6.6ZM218.011 19.2C217.971 19.2933 217.917 19.37 217.851 19.43C217.791 19.49 217.701 19.52 217.581 19.52H216.901L218.651 15.63L214.441 6.05H215.231C215.331 6.05 215.407 6.07667 215.461 6.13C215.521 6.17667 215.564 6.23 215.591 6.29L218.941 14.03C218.981 14.13 219.014 14.2333 219.041 14.34C219.074 14.44 219.104 14.5433 219.131 14.65C219.164 14.5433 219.197 14.44 219.231 14.34C219.271 14.2333 219.311 14.13 219.351 14.03L222.661 6.29C222.694 6.21667 222.741 6.16 222.801 6.12C222.861 6.07333 222.927 6.05 223.001 6.05H223.731L218.011 19.2ZM240.584 16H239.794C239.701 16 239.624 15.9767 239.564 15.93C239.504 15.8767 239.457 15.81 239.424 15.73L237.754 11.62H230.804L229.144 15.73C229.117 15.8033 229.071 15.8667 229.004 15.92C228.937 15.9733 228.857 16 228.764 16H227.984L233.774 1.85H234.794L240.584 16ZM231.114 10.86H237.454L234.564 3.71C234.517 3.59667 234.471 3.47 234.424 3.33C234.377 3.18333 234.331 3.03 234.284 2.87C234.237 3.03 234.191 3.18333 234.144 3.33C234.097 3.47 234.051 3.6 234.004 3.72L231.114 10.86ZM249.395 16C249.228 16 249.131 15.9133 249.105 15.74L249.005 14.17C248.565 14.77 248.048 15.2467 247.455 15.6C246.868 15.9533 246.208 16.13 245.475 16.13C244.255 16.13 243.301 15.7067 242.615 14.86C241.935 14.0133 241.595 12.7433 241.595 11.05C241.595 10.3233 241.688 9.64667 241.875 9.02C242.068 8.38667 242.348 7.84 242.715 7.38C243.088 6.91333 243.541 6.54667 244.075 6.28C244.615 6.01333 245.235 5.88 245.935 5.88C246.608 5.88 247.191 6.00667 247.685 6.26C248.178 6.50667 248.605 6.87 248.965 7.35V1.45H249.925V16H249.395ZM245.745 15.36C246.405 15.36 247.001 15.19 247.535 14.85C248.068 14.51 248.545 14.0367 248.965 13.43V8.18C248.578 7.61333 248.151 7.21333 247.685 6.98C247.225 6.74667 246.701 6.63 246.115 6.63C245.528 6.63 245.015 6.73667 244.575 6.95C244.135 7.16333 243.765 7.46667 243.465 7.86C243.171 8.24667 242.948 8.71333 242.795 9.26C242.648 9.8 242.575 10.3967 242.575 11.05C242.575 12.53 242.848 13.62 243.395 14.32C243.941 15.0133 244.725 15.36 245.745 15.36ZM256.933 16H256.093L251.893 6.05H252.643C252.736 6.05 252.809 6.07667 252.863 6.13C252.923 6.17667 252.966 6.23 252.993 6.29L256.273 14.14C256.339 14.2933 256.389 14.44 256.423 14.58C256.456 14.72 256.489 14.86 256.523 15C256.556 14.86 256.589 14.72 256.623 14.58C256.663 14.4333 256.713 14.2867 256.773 14.14L260.073 6.29C260.106 6.21667 260.149 6.16 260.203 6.12C260.263 6.07333 260.333 6.05 260.413 6.05H261.133L256.933 16ZM266.623 5.89C267.336 5.89 267.973 6.01333 268.533 6.26C269.1 6.5 269.576 6.84333 269.963 7.29C270.35 7.73667 270.643 8.27667 270.843 8.91C271.05 9.53667 271.153 10.24 271.153 11.02C271.153 11.8 271.05 12.5033 270.843 13.13C270.643 13.7567 270.35 14.2933 269.963 14.74C269.576 15.1867 269.1 15.53 268.533 15.77C267.973 16.01 267.336 16.13 266.623 16.13C265.91 16.13 265.27 16.01 264.703 15.77C264.143 15.53 263.666 15.1867 263.273 14.74C262.886 14.2933 262.59 13.7567 262.383 13.13C262.183 12.5033 262.083 11.8 262.083 11.02C262.083 10.24 262.183 9.53667 262.383 8.91C262.59 8.27667 262.886 7.73667 263.273 7.29C263.666 6.84333 264.143 6.5 264.703 6.26C265.27 6.01333 265.91 5.89 266.623 5.89ZM266.623 15.38C267.216 15.38 267.733 15.28 268.173 15.08C268.62 14.8733 268.99 14.58 269.283 14.2C269.583 13.82 269.806 13.3633 269.953 12.83C270.1 12.29 270.173 11.6867 270.173 11.02C270.173 10.36 270.1 9.76 269.953 9.22C269.806 8.68 269.583 8.22 269.283 7.84C268.99 7.45333 268.62 7.15667 268.173 6.95C267.733 6.74333 267.216 6.64 266.623 6.64C266.03 6.64 265.51 6.74333 265.063 6.95C264.623 7.15667 264.253 7.45333 263.953 7.84C263.66 8.22 263.436 8.68 263.283 9.22C263.136 9.76 263.063 10.36 263.063 11.02C263.063 11.6867 263.136 12.29 263.283 12.83C263.436 13.3633 263.66 13.82 263.953 14.2C264.253 14.58 264.623 14.8733 265.063 15.08C265.51 15.28 266.03 15.38 266.623 15.38ZM276.933 5.88C277.367 5.88 277.767 5.93333 278.133 6.04C278.507 6.14667 278.84 6.29667 279.133 6.49H281.683V6.82C281.683 6.98667 281.59 7.07667 281.403 7.09L279.893 7.2C280.08 7.45333 280.223 7.74 280.323 8.06C280.423 8.37333 280.473 8.71 280.473 9.07C280.473 9.55 280.387 9.98667 280.213 10.38C280.04 10.7667 279.797 11.1 279.483 11.38C279.177 11.6533 278.807 11.8667 278.373 12.02C277.94 12.1733 277.46 12.25 276.933 12.25C276.36 12.25 275.84 12.1633 275.373 11.99C275.093 12.15 274.873 12.34 274.713 12.56C274.553 12.78 274.473 12.9933 274.473 13.2C274.473 13.4867 274.573 13.7067 274.773 13.86C274.973 14.0133 275.237 14.1267 275.563 14.2C275.897 14.2667 276.273 14.31 276.693 14.33C277.12 14.35 277.55 14.3733 277.983 14.4C278.423 14.42 278.853 14.46 279.273 14.52C279.7 14.58 280.077 14.6867 280.403 14.84C280.737 14.9867 281.003 15.1967 281.203 15.47C281.403 15.7367 281.503 16.0933 281.503 16.54C281.503 16.9533 281.4 17.35 281.193 17.73C280.987 18.11 280.687 18.4467 280.293 18.74C279.907 19.0333 279.437 19.2667 278.883 19.44C278.33 19.62 277.71 19.71 277.023 19.71C276.323 19.71 275.71 19.6367 275.183 19.49C274.657 19.35 274.213 19.1567 273.853 18.91C273.5 18.67 273.233 18.39 273.053 18.07C272.873 17.75 272.783 17.41 272.783 17.05C272.783 16.5233 272.957 16.07 273.303 15.69C273.65 15.31 274.127 15.0167 274.733 14.81C274.4 14.6967 274.133 14.5333 273.933 14.32C273.74 14.1067 273.643 13.81 273.643 13.43C273.643 13.29 273.67 13.1433 273.723 12.99C273.777 12.8367 273.857 12.6867 273.963 12.54C274.07 12.3867 274.197 12.2433 274.343 12.11C274.497 11.9767 274.673 11.8567 274.873 11.75C274.4 11.4767 274.03 11.1133 273.763 10.66C273.503 10.2067 273.373 9.67667 273.373 9.07C273.373 8.59 273.457 8.15667 273.623 7.77C273.797 7.37667 274.037 7.04 274.343 6.76C274.657 6.48 275.033 6.26333 275.473 6.11C275.913 5.95667 276.4 5.88 276.933 5.88ZM280.623 16.67C280.623 16.3567 280.54 16.1067 280.373 15.92C280.213 15.7267 279.997 15.5767 279.723 15.47C279.45 15.3633 279.133 15.29 278.773 15.25C278.42 15.2033 278.047 15.17 277.653 15.15C277.267 15.13 276.877 15.11 276.483 15.09C276.09 15.07 275.723 15.03 275.383 14.97C275.13 15.07 274.893 15.1867 274.673 15.32C274.46 15.4467 274.277 15.5933 274.123 15.76C273.97 15.92 273.85 16.0967 273.763 16.29C273.677 16.49 273.633 16.7067 273.633 16.94C273.633 17.2333 273.707 17.5033 273.853 17.75C274.007 18.0033 274.227 18.22 274.513 18.4C274.807 18.5867 275.163 18.7333 275.583 18.84C276.003 18.9467 276.487 19 277.033 19C277.54 19 278.01 18.9433 278.443 18.83C278.883 18.7167 279.263 18.5567 279.583 18.35C279.91 18.1433 280.163 17.8967 280.343 17.61C280.53 17.3233 280.623 17.01 280.623 16.67ZM276.933 11.6C277.36 11.6 277.74 11.54 278.073 11.42C278.407 11.2933 278.687 11.12 278.913 10.9C279.14 10.68 279.31 10.4167 279.423 10.11C279.543 9.80333 279.603 9.46333 279.603 9.09C279.603 8.71667 279.543 8.37667 279.423 8.07C279.303 7.75667 279.127 7.49 278.893 7.27C278.667 7.05 278.387 6.88 278.053 6.76C277.727 6.64 277.353 6.58 276.933 6.58C276.513 6.58 276.137 6.64 275.803 6.76C275.47 6.88 275.187 7.05 274.953 7.27C274.727 7.49 274.553 7.75667 274.433 8.07C274.313 8.37667 274.253 8.71667 274.253 9.09C274.253 9.46333 274.313 9.80333 274.433 10.11C274.553 10.4167 274.727 10.68 274.953 10.9C275.187 11.12 275.47 11.2933 275.803 11.42C276.137 11.54 276.513 11.6 276.933 11.6ZM290.101 16C289.901 16 289.778 15.9067 289.731 15.72L289.591 14.45C289.318 14.7167 289.044 14.9567 288.771 15.17C288.504 15.3833 288.224 15.5633 287.931 15.71C287.638 15.8567 287.321 15.9667 286.981 16.04C286.641 16.12 286.268 16.16 285.861 16.16C285.521 16.16 285.191 16.11 284.871 16.01C284.551 15.91 284.268 15.7567 284.021 15.55C283.774 15.3433 283.574 15.08 283.421 14.76C283.274 14.4333 283.201 14.0433 283.201 13.59C283.201 13.17 283.321 12.78 283.561 12.42C283.801 12.06 284.174 11.7467 284.681 11.48C285.194 11.2133 285.851 11 286.651 10.84C287.458 10.68 288.424 10.5867 289.551 10.56V9.52C289.551 8.6 289.351 7.89333 288.951 7.4C288.558 6.9 287.971 6.65 287.191 6.65C286.711 6.65 286.301 6.71667 285.961 6.85C285.628 6.98333 285.344 7.13 285.111 7.29C284.878 7.45 284.688 7.59667 284.541 7.73C284.394 7.86333 284.271 7.93 284.171 7.93C284.038 7.93 283.938 7.87 283.871 7.75L283.701 7.46C284.221 6.94 284.768 6.54667 285.341 6.28C285.914 6.01333 286.564 5.88 287.291 5.88C287.824 5.88 288.291 5.96667 288.691 6.14C289.091 6.30667 289.421 6.55 289.681 6.87C289.948 7.18333 290.148 7.56667 290.281 8.02C290.414 8.46667 290.481 8.96667 290.481 9.52V16H290.101ZM286.101 15.47C286.488 15.47 286.841 15.43 287.161 15.35C287.488 15.2633 287.788 15.1467 288.061 15C288.341 14.8467 288.601 14.6667 288.841 14.46C289.081 14.2533 289.318 14.03 289.551 13.79V11.2C288.604 11.2267 287.788 11.3 287.101 11.42C286.421 11.5333 285.858 11.69 285.411 11.89C284.971 12.09 284.644 12.33 284.431 12.61C284.224 12.8833 284.121 13.1967 284.121 13.55C284.121 13.8833 284.174 14.1733 284.281 14.42C284.394 14.66 284.541 14.86 284.721 15.02C284.901 15.1733 285.111 15.2867 285.351 15.36C285.591 15.4333 285.841 15.47 286.101 15.47ZM300.527 16C300.361 16 300.264 15.9133 300.237 15.74L300.137 14.17C299.697 14.77 299.181 15.2467 298.587 15.6C298.001 15.9533 297.341 16.13 296.607 16.13C295.387 16.13 294.434 15.7067 293.747 14.86C293.067 14.0133 292.727 12.7433 292.727 11.05C292.727 10.3233 292.821 9.64667 293.007 9.02C293.201 8.38667 293.481 7.84 293.847 7.38C294.221 6.91333 294.674 6.54667 295.207 6.28C295.747 6.01333 296.367 5.88 297.067 5.88C297.741 5.88 298.324 6.00667 298.817 6.26C299.311 6.50667 299.737 6.87 300.097 7.35V1.45H301.057V16H300.527ZM296.877 15.36C297.537 15.36 298.134 15.19 298.667 14.85C299.201 14.51 299.677 14.0367 300.097 13.43V8.18C299.711 7.61333 299.284 7.21333 298.817 6.98C298.357 6.74667 297.834 6.63 297.247 6.63C296.661 6.63 296.147 6.73667 295.707 6.95C295.267 7.16333 294.897 7.46667 294.597 7.86C294.304 8.24667 294.081 8.71333 293.927 9.26C293.781 9.8 293.707 10.3967 293.707 11.05C293.707 12.53 293.981 13.62 294.527 14.32C295.074 15.0133 295.857 15.36 296.877 15.36ZM308.185 5.89C308.899 5.89 309.535 6.01333 310.095 6.26C310.662 6.5 311.139 6.84333 311.525 7.29C311.912 7.73667 312.205 8.27667 312.405 8.91C312.612 9.53667 312.715 10.24 312.715 11.02C312.715 11.8 312.612 12.5033 312.405 13.13C312.205 13.7567 311.912 14.2933 311.525 14.74C311.139 15.1867 310.662 15.53 310.095 15.77C309.535 16.01 308.899 16.13 308.185 16.13C307.472 16.13 306.832 16.01 306.265 15.77C305.705 15.53 305.229 15.1867 304.835 14.74C304.449 14.2933 304.152 13.7567 303.945 13.13C303.745 12.5033 303.645 11.8 303.645 11.02C303.645 10.24 303.745 9.53667 303.945 8.91C304.152 8.27667 304.449 7.73667 304.835 7.29C305.229 6.84333 305.705 6.5 306.265 6.26C306.832 6.01333 307.472 5.89 308.185 5.89ZM308.185 15.38C308.779 15.38 309.295 15.28 309.735 15.08C310.182 14.8733 310.552 14.58 310.845 14.2C311.145 13.82 311.369 13.3633 311.515 12.83C311.662 12.29 311.735 11.6867 311.735 11.02C311.735 10.36 311.662 9.76 311.515 9.22C311.369 8.68 311.145 8.22 310.845 7.84C310.552 7.45333 310.182 7.15667 309.735 6.95C309.295 6.74333 308.779 6.64 308.185 6.64C307.592 6.64 307.072 6.74333 306.625 6.95C306.185 7.15667 305.815 7.45333 305.515 7.84C305.222 8.22 304.999 8.68 304.845 9.22C304.699 9.76 304.625 10.36 304.625 11.02C304.625 11.6867 304.699 12.29 304.845 12.83C304.999 13.3633 305.222 13.82 305.515 14.2C305.815 14.58 306.185 14.8733 306.625 15.08C307.072 15.28 307.592 15.38 308.185 15.38ZM320.696 7.28C320.649 7.37333 320.576 7.42 320.476 7.42C320.402 7.42 320.306 7.38 320.186 7.3C320.072 7.21333 319.919 7.12 319.726 7.02C319.539 6.91333 319.306 6.82 319.026 6.74C318.752 6.65333 318.416 6.61 318.016 6.61C317.656 6.61 317.326 6.66333 317.026 6.77C316.732 6.87 316.479 7.00667 316.266 7.18C316.059 7.35333 315.896 7.55667 315.776 7.79C315.662 8.01667 315.606 8.25667 315.606 8.51C315.606 8.82333 315.686 9.08333 315.846 9.29C316.006 9.49667 316.216 9.67333 316.476 9.82C316.736 9.96667 317.029 10.0933 317.356 10.2C317.689 10.3067 318.029 10.4133 318.376 10.52C318.722 10.6267 319.059 10.7467 319.386 10.88C319.719 11.0067 320.016 11.1667 320.276 11.36C320.536 11.5533 320.746 11.79 320.906 12.07C321.066 12.35 321.146 12.69 321.146 13.09C321.146 13.5233 321.066 13.9267 320.906 14.3C320.752 14.6733 320.526 14.9967 320.226 15.27C319.932 15.5433 319.569 15.76 319.136 15.92C318.702 16.08 318.209 16.16 317.656 16.16C316.956 16.16 316.352 16.05 315.846 15.83C315.339 15.6033 314.886 15.31 314.486 14.95L314.716 14.61C314.749 14.5567 314.786 14.5167 314.826 14.49C314.866 14.4633 314.922 14.45 314.996 14.45C315.082 14.45 315.189 14.5033 315.316 14.61C315.442 14.7167 315.606 14.8333 315.806 14.96C316.012 15.08 316.266 15.1933 316.566 15.3C316.872 15.4067 317.249 15.46 317.696 15.46C318.116 15.46 318.486 15.4033 318.806 15.29C319.126 15.17 319.392 15.01 319.606 14.81C319.819 14.61 319.979 14.3767 320.086 14.11C320.199 13.8367 320.256 13.55 320.256 13.25C320.256 12.9167 320.176 12.64 320.016 12.42C319.856 12.2 319.646 12.0133 319.386 11.86C319.126 11.7067 318.829 11.5767 318.496 11.47C318.169 11.3633 317.829 11.2567 317.476 11.15C317.129 11.0433 316.789 10.9267 316.456 10.8C316.129 10.6733 315.836 10.5133 315.576 10.32C315.316 10.1267 315.106 9.89333 314.946 9.62C314.786 9.34 314.706 8.99333 314.706 8.58C314.706 8.22667 314.782 7.88667 314.936 7.56C315.089 7.23333 315.306 6.94667 315.586 6.7C315.872 6.45333 316.219 6.25667 316.626 6.11C317.032 5.96333 317.489 5.89 317.996 5.89C318.602 5.89 319.139 5.97667 319.606 6.15C320.079 6.32333 320.512 6.59 320.906 6.95L320.696 7.28ZM338.807 16H338.017C337.923 16 337.847 15.9767 337.787 15.93C337.727 15.8767 337.68 15.81 337.647 15.73L335.977 11.62H329.027L327.367 15.73C327.34 15.8033 327.293 15.8667 327.227 15.92C327.16 15.9733 327.08 16 326.987 16H326.207L331.997 1.85H333.017L338.807 16ZM329.337 10.86H335.677L332.787 3.71C332.74 3.59667 332.693 3.47 332.647 3.33C332.6 3.18333 332.553 3.03 332.507 2.87C332.46 3.03 332.413 3.18333 332.367 3.33C332.32 3.47 332.273 3.6 332.227 3.72L329.337 10.86ZM346.047 7.28C346.001 7.37333 345.927 7.42 345.827 7.42C345.754 7.42 345.657 7.38 345.537 7.3C345.424 7.21333 345.271 7.12 345.077 7.02C344.891 6.91333 344.657 6.82 344.377 6.74C344.104 6.65333 343.767 6.61 343.367 6.61C343.007 6.61 342.677 6.66333 342.377 6.77C342.084 6.87 341.831 7.00667 341.617 7.18C341.411 7.35333 341.247 7.55667 341.127 7.79C341.014 8.01667 340.957 8.25667 340.957 8.51C340.957 8.82333 341.037 9.08333 341.197 9.29C341.357 9.49667 341.567 9.67333 341.827 9.82C342.087 9.96667 342.381 10.0933 342.707 10.2C343.041 10.3067 343.381 10.4133 343.727 10.52C344.074 10.6267 344.411 10.7467 344.737 10.88C345.071 11.0067 345.367 11.1667 345.627 11.36C345.887 11.5533 346.097 11.79 346.257 12.07C346.417 12.35 346.497 12.69 346.497 13.09C346.497 13.5233 346.417 13.9267 346.257 14.3C346.104 14.6733 345.877 14.9967 345.577 15.27C345.284 15.5433 344.921 15.76 344.487 15.92C344.054 16.08 343.561 16.16 343.007 16.16C342.307 16.16 341.704 16.05 341.197 15.83C340.691 15.6033 340.237 15.31 339.837 14.95L340.067 14.61C340.101 14.5567 340.137 14.5167 340.177 14.49C340.217 14.4633 340.274 14.45 340.347 14.45C340.434 14.45 340.541 14.5033 340.667 14.61C340.794 14.7167 340.957 14.8333 341.157 14.96C341.364 15.08 341.617 15.1933 341.917 15.3C342.224 15.4067 342.601 15.46 343.047 15.46C343.467 15.46 343.837 15.4033 344.157 15.29C344.477 15.17 344.744 15.01 344.957 14.81C345.171 14.61 345.331 14.3767 345.437 14.11C345.551 13.8367 345.607 13.55 345.607 13.25C345.607 12.9167 345.527 12.64 345.367 12.42C345.207 12.2 344.997 12.0133 344.737 11.86C344.477 11.7067 344.181 11.5767 343.847 11.47C343.521 11.3633 343.181 11.2567 342.827 11.15C342.481 11.0433 342.141 10.9267 341.807 10.8C341.481 10.6733 341.187 10.5133 340.927 10.32C340.667 10.1267 340.457 9.89333 340.297 9.62C340.137 9.34 340.057 8.99333 340.057 8.58C340.057 8.22667 340.134 7.88667 340.287 7.56C340.441 7.23333 340.657 6.94667 340.937 6.7C341.224 6.45333 341.571 6.25667 341.977 6.11C342.384 5.96333 342.841 5.89 343.347 5.89C343.954 5.89 344.491 5.97667 344.957 6.15C345.431 6.32333 345.864 6.59 346.257 6.95L346.047 7.28ZM354.641 7.28C354.594 7.37333 354.521 7.42 354.421 7.42C354.348 7.42 354.251 7.38 354.131 7.3C354.018 7.21333 353.864 7.12 353.671 7.02C353.484 6.91333 353.251 6.82 352.971 6.74C352.698 6.65333 352.361 6.61 351.961 6.61C351.601 6.61 351.271 6.66333 350.971 6.77C350.678 6.87 350.424 7.00667 350.211 7.18C350.004 7.35333 349.841 7.55667 349.721 7.79C349.608 8.01667 349.551 8.25667 349.551 8.51C349.551 8.82333 349.631 9.08333 349.791 9.29C349.951 9.49667 350.161 9.67333 350.421 9.82C350.681 9.96667 350.974 10.0933 351.301 10.2C351.634 10.3067 351.974 10.4133 352.321 10.52C352.668 10.6267 353.004 10.7467 353.331 10.88C353.664 11.0067 353.961 11.1667 354.221 11.36C354.481 11.5533 354.691 11.79 354.851 12.07C355.011 12.35 355.091 12.69 355.091 13.09C355.091 13.5233 355.011 13.9267 354.851 14.3C354.698 14.6733 354.471 14.9967 354.171 15.27C353.878 15.5433 353.514 15.76 353.081 15.92C352.648 16.08 352.154 16.16 351.601 16.16C350.901 16.16 350.298 16.05 349.791 15.83C349.284 15.6033 348.831 15.31 348.431 14.95L348.661 14.61C348.694 14.5567 348.731 14.5167 348.771 14.49C348.811 14.4633 348.868 14.45 348.941 14.45C349.028 14.45 349.134 14.5033 349.261 14.61C349.388 14.7167 349.551 14.8333 349.751 14.96C349.958 15.08 350.211 15.1933 350.511 15.3C350.818 15.4067 351.194 15.46 351.641 15.46C352.061 15.46 352.431 15.4033 352.751 15.29C353.071 15.17 353.338 15.01 353.551 14.81C353.764 14.61 353.924 14.3767 354.031 14.11C354.144 13.8367 354.201 13.55 354.201 13.25C354.201 12.9167 354.121 12.64 353.961 12.42C353.801 12.2 353.591 12.0133 353.331 11.86C353.071 11.7067 352.774 11.5767 352.441 11.47C352.114 11.3633 351.774 11.2567 351.421 11.15C351.074 11.0433 350.734 10.9267 350.401 10.8C350.074 10.6733 349.781 10.5133 349.521 10.32C349.261 10.1267 349.051 9.89333 348.891 9.62C348.731 9.34 348.651 8.99333 348.651 8.58C348.651 8.22667 348.728 7.88667 348.881 7.56C349.034 7.23333 349.251 6.94667 349.531 6.7C349.818 6.45333 350.164 6.25667 350.571 6.11C350.978 5.96333 351.434 5.89 351.941 5.89C352.548 5.89 353.084 5.97667 353.551 6.15C354.024 6.32333 354.458 6.59 354.851 6.95L354.641 7.28ZM361.545 5.89C362.258 5.89 362.895 6.01333 363.455 6.26C364.021 6.5 364.498 6.84333 364.885 7.29C365.271 7.73667 365.565 8.27667 365.765 8.91C365.971 9.53667 366.075 10.24 366.075 11.02C366.075 11.8 365.971 12.5033 365.765 13.13C365.565 13.7567 365.271 14.2933 364.885 14.74C364.498 15.1867 364.021 15.53 363.455 15.77C362.895 16.01 362.258 16.13 361.545 16.13C360.831 16.13 360.191 16.01 359.625 15.77C359.065 15.53 358.588 15.1867 358.195 14.74C357.808 14.2933 357.511 13.7567 357.305 13.13C357.105 12.5033 357.005 11.8 357.005 11.02C357.005 10.24 357.105 9.53667 357.305 8.91C357.511 8.27667 357.808 7.73667 358.195 7.29C358.588 6.84333 359.065 6.5 359.625 6.26C360.191 6.01333 360.831 5.89 361.545 5.89ZM361.545 15.38C362.138 15.38 362.655 15.28 363.095 15.08C363.541 14.8733 363.911 14.58 364.205 14.2C364.505 13.82 364.728 13.3633 364.875 12.83C365.021 12.29 365.095 11.6867 365.095 11.02C365.095 10.36 365.021 9.76 364.875 9.22C364.728 8.68 364.505 8.22 364.205 7.84C363.911 7.45333 363.541 7.15667 363.095 6.95C362.655 6.74333 362.138 6.64 361.545 6.64C360.951 6.64 360.431 6.74333 359.985 6.95C359.545 7.15667 359.175 7.45333 358.875 7.84C358.581 8.22 358.358 8.68 358.205 9.22C358.058 9.76 357.985 10.36 357.985 11.02C357.985 11.6867 358.058 12.29 358.205 12.83C358.358 13.3633 358.581 13.82 358.875 14.2C359.175 14.58 359.545 14.8733 359.985 15.08C360.431 15.28 360.951 15.38 361.545 15.38ZM375.125 7.38C375.092 7.41333 375.058 7.44333 375.025 7.47C374.998 7.49 374.958 7.5 374.905 7.5C374.838 7.5 374.745 7.45667 374.625 7.37C374.512 7.27667 374.358 7.17667 374.165 7.07C373.972 6.96333 373.728 6.86667 373.435 6.78C373.148 6.68667 372.798 6.64 372.385 6.64C371.812 6.64 371.302 6.74333 370.855 6.95C370.415 7.15 370.042 7.44 369.735 7.82C369.435 8.2 369.205 8.66 369.045 9.2C368.885 9.74 368.805 10.3467 368.805 11.02C368.805 11.72 368.885 12.34 369.045 12.88C369.212 13.42 369.445 13.8767 369.745 14.25C370.045 14.6167 370.408 14.8967 370.835 15.09C371.262 15.2833 371.735 15.38 372.255 15.38C372.735 15.38 373.135 15.3233 373.455 15.21C373.782 15.0967 374.048 14.9733 374.255 14.84C374.468 14.7067 374.635 14.5833 374.755 14.47C374.882 14.3567 374.982 14.3 375.055 14.3C375.142 14.3 375.208 14.3333 375.255 14.4L375.515 14.72C375.362 14.92 375.168 15.1067 374.935 15.28C374.702 15.4533 374.438 15.6033 374.145 15.73C373.852 15.8567 373.532 15.9533 373.185 16.02C372.845 16.0933 372.488 16.13 372.115 16.13C371.482 16.13 370.902 16.0167 370.375 15.79C369.855 15.5567 369.405 15.2233 369.025 14.79C368.652 14.35 368.358 13.8133 368.145 13.18C367.938 12.5467 367.835 11.8267 367.835 11.02C367.835 10.26 367.935 9.56667 368.135 8.94C368.335 8.31333 368.625 7.77333 369.005 7.32C369.392 6.86667 369.862 6.51667 370.415 6.27C370.975 6.01667 371.615 5.89 372.335 5.89C372.982 5.89 373.555 5.99333 374.055 6.2C374.562 6.40667 375.002 6.68667 375.375 7.04L375.125 7.38ZM378.907 6.05V16H377.957V6.05H378.907ZM379.327 2.62C379.327 2.74 379.3 2.85333 379.247 2.96C379.2 3.06 379.137 3.15 379.057 3.23C378.977 3.31 378.883 3.37333 378.777 3.42C378.67 3.46667 378.557 3.49 378.437 3.49C378.317 3.49 378.203 3.46667 378.097 3.42C377.99 3.37333 377.897 3.31 377.817 3.23C377.737 3.15 377.673 3.06 377.627 2.96C377.58 2.85333 377.557 2.74 377.557 2.62C377.557 2.5 377.58 2.38667 377.627 2.28C377.673 2.16667 377.737 2.07 377.817 1.99C377.897 1.91 377.99 1.84667 378.097 1.8C378.203 1.75333 378.317 1.73 378.437 1.73C378.557 1.73 378.67 1.75333 378.777 1.8C378.883 1.84667 378.977 1.91 379.057 1.99C379.137 2.07 379.2 2.16667 379.247 2.28C379.3 2.38667 379.327 2.5 379.327 2.62ZM388.773 16C388.573 16 388.449 15.9067 388.403 15.72L388.263 14.45C387.989 14.7167 387.716 14.9567 387.443 15.17C387.176 15.3833 386.896 15.5633 386.603 15.71C386.309 15.8567 385.993 15.9667 385.653 16.04C385.313 16.12 384.939 16.16 384.533 16.16C384.193 16.16 383.863 16.11 383.543 16.01C383.223 15.91 382.939 15.7567 382.693 15.55C382.446 15.3433 382.246 15.08 382.093 14.76C381.946 14.4333 381.873 14.0433 381.873 13.59C381.873 13.17 381.993 12.78 382.233 12.42C382.473 12.06 382.846 11.7467 383.353 11.48C383.866 11.2133 384.523 11 385.323 10.84C386.129 10.68 387.096 10.5867 388.223 10.56V9.52C388.223 8.6 388.023 7.89333 387.623 7.4C387.229 6.9 386.643 6.65 385.863 6.65C385.383 6.65 384.973 6.71667 384.633 6.85C384.299 6.98333 384.016 7.13 383.783 7.29C383.549 7.45 383.359 7.59667 383.213 7.73C383.066 7.86333 382.943 7.93 382.843 7.93C382.709 7.93 382.609 7.87 382.543 7.75L382.373 7.46C382.893 6.94 383.439 6.54667 384.013 6.28C384.586 6.01333 385.236 5.88 385.963 5.88C386.496 5.88 386.963 5.96667 387.363 6.14C387.763 6.30667 388.093 6.55 388.353 6.87C388.619 7.18333 388.819 7.56667 388.953 8.02C389.086 8.46667 389.153 8.96667 389.153 9.52V16H388.773ZM384.773 15.47C385.159 15.47 385.513 15.43 385.833 15.35C386.159 15.2633 386.459 15.1467 386.733 15C387.013 14.8467 387.273 14.6667 387.513 14.46C387.753 14.2533 387.989 14.03 388.223 13.79V11.2C387.276 11.2267 386.459 11.3 385.773 11.42C385.093 11.5333 384.529 11.69 384.083 11.89C383.643 12.09 383.316 12.33 383.103 12.61C382.896 12.8833 382.793 13.1967 382.793 13.55C382.793 13.8833 382.846 14.1733 382.953 14.42C383.066 14.66 383.213 14.86 383.393 15.02C383.573 15.1733 383.783 15.2867 384.023 15.36C384.263 15.4333 384.513 15.47 384.773 15.47ZM399.199 16C399.033 16 398.936 15.9133 398.909 15.74L398.809 14.17C398.369 14.77 397.853 15.2467 397.259 15.6C396.673 15.9533 396.013 16.13 395.279 16.13C394.059 16.13 393.106 15.7067 392.419 14.86C391.739 14.0133 391.399 12.7433 391.399 11.05C391.399 10.3233 391.493 9.64667 391.679 9.02C391.873 8.38667 392.153 7.84 392.519 7.38C392.893 6.91333 393.346 6.54667 393.879 6.28C394.419 6.01333 395.039 5.88 395.739 5.88C396.413 5.88 396.996 6.00667 397.489 6.26C397.983 6.50667 398.409 6.87 398.769 7.35V1.45H399.729V16H399.199ZM395.549 15.36C396.209 15.36 396.806 15.19 397.339 14.85C397.873 14.51 398.349 14.0367 398.769 13.43V8.18C398.383 7.61333 397.956 7.21333 397.489 6.98C397.029 6.74667 396.506 6.63 395.919 6.63C395.333 6.63 394.819 6.73667 394.379 6.95C393.939 7.16333 393.569 7.46667 393.269 7.86C392.976 8.24667 392.753 8.71333 392.599 9.26C392.453 9.8 392.379 10.3967 392.379 11.05C392.379 12.53 392.653 13.62 393.199 14.32C393.746 15.0133 394.529 15.36 395.549 15.36ZM406.857 5.89C407.571 5.89 408.207 6.01333 408.767 6.26C409.334 6.5 409.811 6.84333 410.197 7.29C410.584 7.73667 410.877 8.27667 411.077 8.91C411.284 9.53667 411.387 10.24 411.387 11.02C411.387 11.8 411.284 12.5033 411.077 13.13C410.877 13.7567 410.584 14.2933 410.197 14.74C409.811 15.1867 409.334 15.53 408.767 15.77C408.207 16.01 407.571 16.13 406.857 16.13C406.144 16.13 405.504 16.01 404.937 15.77C404.377 15.53 403.901 15.1867 403.507 14.74C403.121 14.2933 402.824 13.7567 402.617 13.13C402.417 12.5033 402.317 11.8 402.317 11.02C402.317 10.24 402.417 9.53667 402.617 8.91C402.824 8.27667 403.121 7.73667 403.507 7.29C403.901 6.84333 404.377 6.5 404.937 6.26C405.504 6.01333 406.144 5.89 406.857 5.89ZM406.857 15.38C407.451 15.38 407.967 15.28 408.407 15.08C408.854 14.8733 409.224 14.58 409.517 14.2C409.817 13.82 410.041 13.3633 410.187 12.83C410.334 12.29 410.407 11.6867 410.407 11.02C410.407 10.36 410.334 9.76 410.187 9.22C410.041 8.68 409.817 8.22 409.517 7.84C409.224 7.45333 408.854 7.15667 408.407 6.95C407.967 6.74333 407.451 6.64 406.857 6.64C406.264 6.64 405.744 6.74333 405.297 6.95C404.857 7.15667 404.487 7.45333 404.187 7.84C403.894 8.22 403.671 8.68 403.517 9.22C403.371 9.76 403.297 10.36 403.297 11.02C403.297 11.6867 403.371 12.29 403.517 12.83C403.671 13.3633 403.894 13.82 404.187 14.2C404.487 14.58 404.857 14.8733 405.297 15.08C405.744 15.28 406.264 15.38 406.857 15.38ZM419.368 7.28C419.321 7.37333 419.248 7.42 419.148 7.42C419.074 7.42 418.978 7.38 418.858 7.3C418.744 7.21333 418.591 7.12 418.398 7.02C418.211 6.91333 417.978 6.82 417.698 6.74C417.424 6.65333 417.088 6.61 416.688 6.61C416.328 6.61 415.998 6.66333 415.698 6.77C415.404 6.87 415.151 7.00667 414.938 7.18C414.731 7.35333 414.568 7.55667 414.448 7.79C414.334 8.01667 414.278 8.25667 414.278 8.51C414.278 8.82333 414.358 9.08333 414.518 9.29C414.678 9.49667 414.888 9.67333 415.148 9.82C415.408 9.96667 415.701 10.0933 416.028 10.2C416.361 10.3067 416.701 10.4133 417.048 10.52C417.394 10.6267 417.731 10.7467 418.058 10.88C418.391 11.0067 418.688 11.1667 418.948 11.36C419.208 11.5533 419.418 11.79 419.578 12.07C419.738 12.35 419.818 12.69 419.818 13.09C419.818 13.5233 419.738 13.9267 419.578 14.3C419.424 14.6733 419.198 14.9967 418.898 15.27C418.604 15.5433 418.241 15.76 417.808 15.92C417.374 16.08 416.881 16.16 416.328 16.16C415.628 16.16 415.024 16.05 414.518 15.83C414.011 15.6033 413.558 15.31 413.158 14.95L413.388 14.61C413.421 14.5567 413.458 14.5167 413.498 14.49C413.538 14.4633 413.594 14.45 413.668 14.45C413.754 14.45 413.861 14.5033 413.988 14.61C414.114 14.7167 414.278 14.8333 414.478 14.96C414.684 15.08 414.938 15.1933 415.238 15.3C415.544 15.4067 415.921 15.46 416.368 15.46C416.788 15.46 417.158 15.4033 417.478 15.29C417.798 15.17 418.064 15.01 418.278 14.81C418.491 14.61 418.651 14.3767 418.758 14.11C418.871 13.8367 418.928 13.55 418.928 13.25C418.928 12.9167 418.848 12.64 418.688 12.42C418.528 12.2 418.318 12.0133 418.058 11.86C417.798 11.7067 417.501 11.5767 417.168 11.47C416.841 11.3633 416.501 11.2567 416.148 11.15C415.801 11.0433 415.461 10.9267 415.128 10.8C414.801 10.6733 414.508 10.5133 414.248 10.32C413.988 10.1267 413.778 9.89333 413.618 9.62C413.458 9.34 413.378 8.99333 413.378 8.58C413.378 8.22667 413.454 7.88667 413.608 7.56C413.761 7.23333 413.978 6.94667 414.258 6.7C414.544 6.45333 414.891 6.25667 415.298 6.11C415.704 5.96333 416.161 5.89 416.668 5.89C417.274 5.89 417.811 5.97667 418.278 6.15C418.751 6.32333 419.184 6.59 419.578 6.95L419.368 7.28Z" fill="#BE9667"/>
</svg>
