<svg width="93" height="41" viewBox="0 0 93 41" fill="none" xmlns="http://www.w3.org/2000/svg">
<path d="M12.1571 2.95422C13.001 3.64876 14.603 4.61532 17.1047 4.76805V34.049H2.09351V13.0066C3.07586 12.5176 3.97805 11.882 4.7691 11.1214C6.21838 9.72569 7.79697 7.35445 7.68103 3.71119L12.1526 2.95422H12.1571ZM12.6632 1.28198L6.00099 2.41353C7.12919 9.89291 0.53833 11.9743 0.53833 11.9743V35.6086H18.6654V3.19057C18.3611 3.21621 18.069 3.22736 17.7903 3.22736C14.2162 3.22736 12.6677 1.28533 12.6677 1.28533L12.6632 1.28198Z" fill="#007A9B"/>
<path d="M29.8626 7.71242C30.1376 7.82315 30.4022 8.06693 30.6564 8.44374C30.9409 8.87653 31.196 9.32793 31.4201 9.79491C31.6742 10.3152 31.9459 10.8689 32.235 11.456C32.5184 12.0315 32.8421 12.5862 33.2038 13.116C33.5453 13.62 33.947 14.0805 34.4 14.4872C34.8316 14.8751 35.3582 15.142 35.9262 15.2609C36.075 15.3285 36.2304 15.3804 36.39 15.4159C36.5483 15.4493 36.6274 15.5274 36.6274 15.6522C36.6274 15.7347 36.5661 15.8384 36.4412 15.9621C36.2 16.0284 35.9498 16.0562 35.6999 16.0446C35.5616 16.0446 35.4245 16.0368 35.2874 16.0235C35.1503 16.0101 35.0321 15.9956 34.9362 15.9822C33.7679 15.7763 32.7883 15.3022 31.9975 14.5597C31.1961 13.8018 30.5787 12.8706 30.1926 11.8373C29.9585 11.3973 29.7419 10.9436 29.5427 10.4761C29.3563 10.0328 29.1286 9.60801 28.8626 9.2074C28.6218 8.84536 28.32 8.52777 27.9708 8.26871C27.6063 8.01268 27.1684 7.88236 26.7233 7.89748C26.4479 7.89748 26.2774 7.95322 26.2183 8.06247C26.1592 8.17172 26.1246 8.39692 26.1246 8.72245V12.9722C26.1092 13.2472 26.1552 13.5221 26.2595 13.7771C26.3379 13.9441 26.4681 14.0814 26.6308 14.1684C26.8084 14.2573 27.0006 14.3132 27.1982 14.3334C27.4212 14.3616 27.6687 14.4029 27.9407 14.4571C27.9936 14.4754 28.0498 14.4826 28.1057 14.4783C28.21 14.4774 28.314 14.4913 28.4145 14.5196C28.4595 14.5306 28.4989 14.5576 28.5256 14.5955C28.5522 14.6334 28.5642 14.6797 28.5594 14.7258C28.5594 14.9187 28.4903 15.0346 28.3532 15.0759C28.1507 15.1245 27.9425 15.1455 27.7344 15.1383C27.2394 15.1383 26.7445 15.1141 26.2495 15.0658C25.7534 15.0179 25.2662 14.9934 24.7846 14.9934C24.3587 14.9934 23.9351 15.0145 23.5159 15.0558C23.0967 15.097 22.6742 15.1171 22.2484 15.1171C22.1289 15.1278 22.0086 15.1102 21.8972 15.0658C21.8426 15.0313 21.8147 14.9187 21.8147 14.7258C21.8148 14.6789 21.8314 14.6336 21.8615 14.5977C21.8917 14.5618 21.9335 14.5377 21.9797 14.5296C22.1182 14.4891 22.2594 14.4582 22.4022 14.4371C22.5739 14.4092 22.7567 14.378 22.9496 14.3434C23.1413 14.3095 23.326 14.2436 23.4959 14.1483C23.6882 14.0469 23.8465 13.8912 23.9509 13.7005C24.0554 13.5098 24.1015 13.2925 24.0834 13.0758V8.82613C24.0834 7.65779 24.0938 6.49577 24.1146 5.34006C24.1354 4.18436 24.1458 3.02271 24.1458 1.85511C24.1591 1.6298 24.1014 1.406 23.9808 1.2152C23.8753 1.06802 23.7276 0.956421 23.5572 0.895245C23.3811 0.83318 23.1973 0.795666 23.0109 0.783762C22.818 0.770384 22.6363 0.755892 22.4646 0.742514C22.3207 0.734663 22.1785 0.706901 22.0421 0.660017C21.9908 0.643372 21.9465 0.609878 21.9166 0.56496C21.8866 0.520042 21.8727 0.466331 21.8771 0.412525C21.8771 0.21966 21.9485 0.105947 22.0934 0.0713873C22.2396 0.0372326 22.3892 0.0200253 22.5393 0.0201054C22.6898 0.0201054 22.8448 0.027909 23.0031 0.0412869C23.1614 0.0546649 23.3153 0.0613539 23.4669 0.0613539H25.2617C25.782 0.0613539 26.3078 0.050949 26.8392 0.0301388C27.3706 0.00932872 27.8965 -0.000704776 28.4167 3.84422e-05C28.9096 0.00441673 29.4005 0.0631138 29.8805 0.175066C30.4052 0.292743 30.9025 0.509971 31.3454 0.814978C31.8133 1.13946 32.2014 1.56603 32.4803 2.06247C32.782 2.58272 32.9332 3.24939 32.934 4.06247C32.9369 4.48727 32.8415 4.90698 32.6553 5.28878C32.4703 5.66541 32.2264 6.01013 31.9329 6.30996C31.6346 6.61476 31.3025 6.88444 30.9429 7.11375C30.5971 7.33803 30.2361 7.53806 29.8626 7.71242ZM30.8325 4.00004C30.8435 3.50362 30.752 3.01027 30.5639 2.55076C30.3975 2.15499 30.1477 1.79981 29.8314 1.50952C29.5124 1.22182 29.1369 1.00387 28.7289 0.869604C28.2764 0.721017 27.8026 0.647948 27.3264 0.653327C26.8448 0.653327 26.5286 0.739169 26.3777 0.910853C26.2268 1.08254 26.1525 1.33337 26.1547 1.66336V2.37016C26.1547 2.92089 26.1477 3.53962 26.1335 4.22635C26.1194 4.91308 26.1127 5.53181 26.1135 6.08254C26.1135 6.28878 26.1135 6.46492 26.1034 6.60874C26.0933 6.73068 26.1073 6.85343 26.1447 6.96994C26.1633 7.01925 26.1932 7.06355 26.2319 7.09934C26.2706 7.13513 26.317 7.16144 26.3677 7.17618C26.5458 7.22484 26.7305 7.24552 26.915 7.2375C27.4335 7.24022 27.951 7.19544 28.4613 7.10372C28.9082 7.02905 29.3342 6.86033 29.711 6.60874C30.0697 6.35858 30.3546 6.01669 30.536 5.61877C30.7337 5.19959 30.8325 4.66002 30.8325 4.00004Z" fill="black"/>
<path d="M48.6308 8.74355C48.6384 8.88579 48.61 9.02767 48.5483 9.15603C48.4755 9.16834 48.4022 9.1769 48.3286 9.18167C48.2564 9.18911 48.1839 9.19283 48.1112 9.19282H42.9775C42.907 9.19561 42.8374 9.20953 42.7712 9.23407C42.73 9.23407 42.7021 9.2887 42.6887 9.39906C42.6743 9.50995 42.6672 9.62168 42.6675 9.73351V9.89851C42.6791 10.4401 42.7455 10.9791 42.866 11.5072C42.97 11.9846 43.1625 12.4384 43.4334 12.845C43.6955 13.2318 44.05 13.5472 44.4646 13.7625C44.8905 13.9899 45.4197 14.1036 46.0522 14.1036C46.2841 14.1062 46.5157 14.0853 46.7434 14.0412C46.936 14.0023 47.1232 13.9402 47.3008 13.8561C47.4812 13.7682 47.6536 13.6645 47.8158 13.5462C47.9875 13.4228 48.1767 13.2854 48.3833 13.1337C48.4358 13.1138 48.4925 13.1069 48.5483 13.1137C48.6441 13.1137 48.6921 13.1549 48.6921 13.2374C48.6809 13.3353 48.6422 13.4281 48.5806 13.505C48.5011 13.6215 48.4147 13.7332 48.322 13.8394C48.2278 13.9478 48.1281 14.0513 48.0232 14.1493C47.9206 14.2452 47.8403 14.3143 47.7857 14.3556C47.4174 14.6779 46.9996 14.9388 46.5483 15.1282C46.0933 15.2962 45.6106 15.3768 45.1257 15.3656C44.5375 15.3795 43.9532 15.2654 43.4134 15.0312C42.929 14.8121 42.4995 14.4881 42.1558 14.0825C41.8071 13.6664 41.5421 13.1867 41.3755 12.67C41.1899 12.1081 41.0911 11.5213 41.0823 10.9297C41.0692 10.2715 41.1313 9.61398 41.2673 8.96986C41.3927 8.34127 41.6229 7.73826 41.9485 7.18613C42.2599 6.66202 42.6884 6.21712 43.2004 5.88624C43.7155 5.54956 44.3376 5.38123 45.0667 5.38123C45.8916 5.38123 46.5977 5.55662 47.1848 5.90742C47.772 6.25822 48.1878 6.84611 48.4323 7.67108C48.4863 7.84734 48.531 8.02634 48.5661 8.20731C48.5975 8.38474 48.6191 8.56375 48.6308 8.74355ZM46.9184 7.7324C46.9181 7.49699 46.8652 7.26463 46.7634 7.05235C46.6645 6.83782 46.5287 6.64234 46.3621 6.47487C46.1981 6.31093 46.0059 6.17798 45.7946 6.08245C45.5908 5.98863 45.3691 5.93959 45.1447 5.93864C44.8495 5.94038 44.5593 6.01465 44.2997 6.15492C44.0241 6.29962 43.7762 6.4917 43.5672 6.72236C43.3545 6.95595 43.1837 7.22447 43.0622 7.51612C42.9422 7.79283 42.8789 8.09078 42.876 8.39237C42.876 8.44812 42.9206 8.48491 43.0098 8.50386C43.1117 8.52648 43.2154 8.54028 43.3197 8.54511C43.433 8.5518 43.5465 8.5518 43.6597 8.54511C43.7712 8.53842 43.8381 8.53507 43.866 8.53507C44.2502 8.53507 44.5702 8.53842 44.8259 8.54511C45.0815 8.5518 45.3944 8.54102 45.7645 8.51278C45.9295 8.4994 46.0812 8.48602 46.2183 8.47153C46.3419 8.46109 46.4635 8.43332 46.5795 8.38903C46.6836 8.34626 46.7706 8.27021 46.827 8.17275C46.8958 8.03663 46.9274 7.88468 46.9184 7.7324Z" fill="black"/>
<path d="M57.2719 5.23743C57.3041 5.24067 57.335 5.2517 57.362 5.26957C57.389 5.28744 57.4112 5.31161 57.4268 5.33999C57.466 5.38711 57.4911 5.44428 57.4993 5.50498C57.4989 5.56064 57.4918 5.61604 57.4781 5.66998C57.4649 5.72399 57.4582 5.77938 57.458 5.83497V6.9498L57.4993 6.97098C57.5624 6.94181 57.6186 6.89964 57.6643 6.84724C58.1073 6.46543 58.5833 6.1237 59.0868 5.82606C59.5958 5.53685 60.1737 5.39085 60.759 5.40354C61.2305 5.38762 61.6994 5.47912 62.1303 5.67109C62.4796 5.83723 62.7811 6.08923 63.0065 6.40354C63.2369 6.73782 63.3917 7.11823 63.4603 7.51836C63.5451 7.97759 63.5866 8.44379 63.584 8.91078C63.584 9.18578 63.5773 9.4537 63.5639 9.71457C63.5494 9.97656 63.5428 10.2441 63.5428 10.5195V13.5295C63.5428 13.9963 63.6803 14.285 63.9552 14.3957C64.2788 14.5142 64.6219 14.5702 64.9664 14.5607C64.996 14.5583 65.0254 14.5662 65.0498 14.5831C65.0742 14.5999 65.092 14.6247 65.1002 14.6533C65.1214 14.7165 65.1319 14.7828 65.1314 14.8495C65.1312 14.9059 65.1206 14.9619 65.1002 15.0145C65.0801 15.0691 65.021 15.097 64.9251 15.097C64.7356 15.0973 64.5461 15.0869 64.3577 15.0657C64.1693 15.0451 63.9798 15.0347 63.7902 15.0345H62.2429C62.1314 15.0345 62.0199 15.0345 61.9084 15.0457C61.7969 15.0568 61.6855 15.0624 61.574 15.0758C61.4625 15.0892 61.351 15.1003 61.2395 15.107C61.128 15.1137 61.0166 15.117 60.9051 15.117C60.7842 15.114 60.6636 15.1039 60.5439 15.0869C60.3856 15.0661 60.3064 14.9918 60.3064 14.864C60.3008 14.8062 60.3138 14.7481 60.3435 14.6982C60.3732 14.6483 60.418 14.6091 60.4714 14.5864C60.5998 14.5325 60.7354 14.4976 60.8739 14.4827C61.0322 14.4615 61.1905 14.4348 61.3488 14.4002C61.5002 14.3692 61.6355 14.285 61.7301 14.1627C61.8485 14.0008 61.9132 13.8059 61.9151 13.6053C61.9285 13.3712 61.9363 13.1717 61.9363 13.0067C61.9497 12.7049 61.9564 12.4076 61.9564 12.1148V9.46485C61.9568 9.11379 61.9397 8.76292 61.9051 8.41357C61.8775 8.0955 61.7937 7.78485 61.6576 7.49607C61.5274 7.22805 61.3236 7.00262 61.0701 6.84612C60.8081 6.68113 60.458 6.59863 60.0177 6.59863C59.7268 6.59463 59.4373 6.63986 59.1615 6.73241C58.8874 6.8307 58.6219 6.95152 58.3677 7.09361C58.2444 7.16273 58.0898 7.25192 57.904 7.36117C57.7438 7.4456 57.6114 7.57452 57.5227 7.73241C57.4868 7.857 57.4626 7.98463 57.4502 8.11368C57.429 8.28648 57.4123 8.48269 57.3989 8.70231C57.3856 8.92193 57.3778 9.14824 57.3778 9.38236V13.4047C57.373 13.6478 57.4443 13.8863 57.5818 14.0869C57.6404 14.1785 57.7173 14.2569 57.8077 14.3173C57.898 14.3778 57.9999 14.4189 58.1069 14.4381C58.3019 14.4655 58.4986 14.4792 58.6955 14.4793C58.8098 14.4792 58.9231 14.5 59.0299 14.5407C59.1124 14.5689 59.1537 14.6432 59.1537 14.7636C59.1572 14.8083 59.1517 14.8532 59.1376 14.8958C59.1234 14.9383 59.1008 14.9775 59.0712 15.0111C58.9983 15.0394 58.9238 15.0636 58.8482 15.0836C58.7698 15.0926 58.6908 15.096 58.6119 15.0936C58.3138 15.0938 58.0161 15.0767 57.72 15.0423C57.4326 15.0077 57.1433 14.9902 56.8538 14.9899C56.506 14.9896 56.1585 15.0071 55.8125 15.0423C55.4781 15.0758 55.128 15.0936 54.7713 15.0936C54.6758 15.0961 54.5809 15.0786 54.4926 15.0423C54.4183 15.0074 54.3811 14.9283 54.3811 14.8049C54.3836 14.7616 54.3986 14.72 54.4244 14.6852C54.4501 14.6504 54.4854 14.6238 54.526 14.6087C54.638 14.5551 54.7553 14.5136 54.8761 14.4849C55.0123 14.4507 55.1467 14.4094 55.2785 14.3612C55.3936 14.3231 55.4967 14.2555 55.5773 14.165C55.703 13.9773 55.7797 13.7611 55.8003 13.5362C55.8313 13.307 55.8484 13.0762 55.8516 12.845V8.59863C55.856 8.31474 55.8284 8.03126 55.7691 7.75359C55.7583 7.68359 55.7336 7.61645 55.6964 7.55614C55.6593 7.49582 55.6105 7.44356 55.5528 7.40242C55.4381 7.32138 55.3133 7.25579 55.1815 7.20733C55.05 7.15827 54.9329 7.11703 54.8304 7.08247C54.7278 7.04791 54.6754 6.98994 54.6754 6.90744V6.86619C54.7309 6.76846 54.807 6.684 54.8984 6.6187C54.953 6.57745 55.1013 6.48157 55.3443 6.32996C55.5873 6.17834 55.8471 6.0245 56.1247 5.86619C56.4023 5.70788 56.6598 5.56407 56.8872 5.43364C57.0078 5.35418 57.1368 5.28837 57.2719 5.23743Z" fill="black"/>
<path d="M78.1236 8.74361C78.1313 8.88586 78.1029 9.02774 78.0411 9.1561C77.9696 9.16979 77.8974 9.17983 77.8248 9.1862C77.7508 9.19383 77.6763 9.19755 77.6019 9.19735H72.4726C72.4021 9.20013 72.3324 9.21406 72.2663 9.2386C72.2251 9.2386 72.1972 9.29322 72.1838 9.40359C72.1693 9.51448 72.1623 9.62621 72.1626 9.73804V9.90303C72.174 10.4445 72.2397 10.9834 72.3588 11.5117C72.4629 11.9892 72.6553 12.4429 72.9263 12.8495C73.1884 13.2364 73.5428 13.5517 73.9575 13.767C74.3834 13.9945 74.9125 14.1082 75.545 14.1082C75.7769 14.1107 76.0085 14.0898 76.2362 14.0457C76.4288 14.0069 76.616 13.9447 76.7936 13.8607C76.9741 13.7727 77.1464 13.669 77.3087 13.5507C77.4804 13.4274 77.6695 13.2899 77.8761 13.1383C77.9287 13.1183 77.9853 13.1114 78.0411 13.1182C78.137 13.1182 78.1849 13.1594 78.1849 13.2419C78.1737 13.3399 78.1351 13.4326 78.0734 13.5095C77.9939 13.626 77.9076 13.7377 77.8148 13.8439C77.7209 13.9526 77.6212 14.0561 77.516 14.1539C77.4405 14.2267 77.3612 14.2955 77.2786 14.3601C76.9103 14.6824 76.4924 14.9433 76.0411 15.1327C75.5862 15.3008 75.1035 15.3814 74.6186 15.3701C74.0303 15.384 73.446 15.2699 72.9062 15.0357C72.4219 14.8167 71.9923 14.4926 71.6487 14.087C71.2999 13.6709 71.0349 13.1912 70.8683 12.6745C70.6851 12.1149 70.5877 11.5308 70.5796 10.9421C70.5665 10.2839 70.6286 9.62631 70.7646 8.98219C70.89 8.3536 71.1202 7.75059 71.4458 7.19846C71.7563 6.67509 72.1831 6.23029 72.6933 5.89857C73.2091 5.56189 73.8312 5.39355 74.5595 5.39355C75.3845 5.39355 76.0905 5.56895 76.6777 5.91975C77.2648 6.27055 77.6807 6.85844 77.9252 7.68341C77.9792 7.85967 78.0238 8.03867 78.059 8.21964C78.0899 8.39301 78.1115 8.56792 78.1236 8.74361ZM76.4112 7.73246C76.4108 7.4972 76.3583 7.26496 76.2574 7.05242C76.1577 6.83806 76.0215 6.64266 75.8549 6.47494C75.691 6.31099 75.4988 6.17805 75.2875 6.08252C75.0836 5.9887 74.862 5.93966 74.6375 5.93871C74.3424 5.94044 74.0522 6.01471 73.7925 6.15498C73.517 6.29969 73.269 6.49177 73.0601 6.72243C72.8474 6.95602 72.6765 7.22454 72.555 7.51619C72.4351 7.79289 72.3717 8.09085 72.3689 8.39244C72.3689 8.44818 72.4135 8.48497 72.5038 8.50392C72.6053 8.52665 72.7086 8.54046 72.8126 8.54517C72.924 8.55164 73.0356 8.55164 73.147 8.54517C73.2585 8.53848 73.3254 8.53514 73.3533 8.53514C73.7383 8.53514 74.0582 8.53848 74.3131 8.54517C74.5681 8.55186 74.8806 8.54146 75.2507 8.51396C75.4157 8.50058 75.5673 8.4872 75.7044 8.47271C75.8281 8.4624 75.9497 8.43463 76.0656 8.39021C76.1701 8.34803 76.2573 8.27183 76.3131 8.17393C76.3845 8.03812 76.4184 7.88573 76.4112 7.73246Z" fill="black"/>
<path d="M91.7148 8.74361C91.7225 8.88586 91.6941 9.02774 91.6323 9.1561C91.4896 9.18235 91.3448 9.19615 91.1997 9.19735H86.0637C85.9932 9.20013 85.9236 9.21406 85.8575 9.2386C85.8162 9.2386 85.7884 9.29322 85.775 9.40359C85.7615 9.51456 85.7548 9.62625 85.7549 9.73804V9.90303C85.7657 10.4445 85.8314 10.9835 85.9511 11.5117C86.0548 11.9891 86.2469 12.4428 86.5175 12.8495C86.7798 13.2361 87.1342 13.5514 87.5487 13.767C87.9745 13.9945 88.5041 14.1082 89.1373 14.1082C89.3692 14.1107 89.6008 14.0898 89.8285 14.0457C90.0211 14.0069 90.2083 13.9448 90.3859 13.8607C90.5666 13.7725 90.7393 13.6688 90.9021 13.5507C91.0738 13.4274 91.2625 13.2899 91.4684 13.1383C91.521 13.1186 91.5776 13.1117 91.6334 13.1182C91.7293 13.1182 91.7783 13.1594 91.7783 13.2419C91.7675 13.3399 91.7288 13.4328 91.6669 13.5095C91.5877 13.626 91.5017 13.7377 91.4093 13.844C91.3123 13.9554 91.2131 14.058 91.1106 14.1539C91.008 14.2497 90.9277 14.3189 90.8731 14.3601C90.5044 14.682 90.0867 14.9428 89.6356 15.1327C89.1803 15.3007 88.6973 15.3813 88.212 15.3701C87.6241 15.3841 87.0402 15.2699 86.5007 15.0357C86.0162 14.8164 85.5864 14.4924 85.2421 14.087C84.8937 13.6706 84.6288 13.1911 84.4617 12.6745C84.279 12.1148 84.1817 11.5308 84.173 10.9421C84.1603 10.2838 84.2228 9.62627 84.3592 8.98219C84.4841 8.35366 84.714 7.75065 85.0392 7.19846C85.3501 6.67504 85.7773 6.23025 86.2878 5.89857C86.8029 5.56189 87.4249 5.39355 88.154 5.39355C88.979 5.39355 89.6851 5.56895 90.2722 5.91975C90.8593 6.27055 91.2752 6.85844 91.5197 7.68341C91.5741 7.85966 91.6191 8.03865 91.6546 8.21964C91.684 8.39309 91.7041 8.568 91.7148 8.74361ZM90.0035 7.73246C90.0033 7.49706 89.9503 7.2647 89.8486 7.05242C89.7493 6.83783 89.6131 6.64237 89.4461 6.47494C89.2826 6.31101 89.0907 6.17806 88.8798 6.08252C88.6759 5.98883 88.4543 5.9398 88.2298 5.93871C87.9344 5.94058 87.6438 6.01484 87.3837 6.15498C87.1085 6.2997 86.8609 6.49179 86.6524 6.72243C86.4389 6.95569 86.2677 7.22427 86.1462 7.51619C86.0266 7.79295 85.9636 8.09092 85.9612 8.39244C85.9612 8.44818 86.0058 8.48497 86.0949 8.50392C86.1969 8.52662 86.3006 8.54043 86.4049 8.54517C86.5181 8.55186 86.6317 8.55186 86.7449 8.54517C86.8564 8.53848 86.9233 8.53514 86.9511 8.53514C87.3354 8.53514 87.655 8.53848 87.9099 8.54517C88.1648 8.55186 88.4777 8.54146 88.8486 8.51396C89.0136 8.50058 89.1641 8.4872 89.3023 8.47271C89.426 8.46227 89.5476 8.4345 89.6635 8.39021C89.7674 8.3488 89.8547 8.27437 89.9121 8.17839C89.9814 8.04043 90.013 7.88657 90.0035 7.73246Z" fill="black"/>
<path d="M35.3489 20.6642C35.238 21.0012 35.172 21.3513 35.1526 21.7055C35.1185 22.1388 35.0772 22.5617 35.0289 22.9742C34.9905 23.3368 34.9215 23.6956 34.8227 24.0466C34.7335 24.3487 34.5863 24.5004 34.3767 24.5004C34.2128 24.5004 34.1159 24.4346 34.0891 24.3041C34.0604 24.1407 34.0567 23.9738 34.078 23.8092C34.0991 23.6096 34.1159 23.3933 34.1304 23.1592C34.1451 22.9343 34.1097 22.7088 34.0267 22.4992C33.9452 22.3214 33.8023 22.1789 33.6242 22.0979C33.3999 21.9878 33.16 21.9126 32.913 21.8749C32.6229 21.8251 32.3304 21.7908 32.0367 21.7724C31.7268 21.7516 31.4347 21.7412 31.1604 21.7412C30.9542 21.7412 30.768 21.7412 30.603 21.7512C30.438 21.7612 30.3009 21.7612 30.1905 21.7612C30.0802 21.7612 30.0055 21.7612 29.923 21.7512C29.8829 21.7477 29.8425 21.7533 29.8049 21.7676C29.7672 21.7819 29.7333 21.8045 29.7056 21.8337C29.6277 21.9297 29.5779 22.0455 29.5618 22.1681C29.5213 22.403 29.5041 22.6412 29.5105 22.8794L29.4693 25.3956C29.4418 26.6063 29.4451 27.8162 29.4793 29.0254C29.5135 30.2347 29.5168 31.4446 29.4893 32.6553C29.4893 32.8783 29.4927 33.0983 29.4994 33.3153C29.5063 33.5368 29.5306 33.7575 29.5718 33.9753C29.6409 34.361 29.813 34.6189 30.088 34.749C30.361 34.879 30.6537 34.9627 30.9542 34.9965L31.768 35.089C32.0088 35.1169 32.1292 35.2127 32.1292 35.3777C32.1292 35.6007 32.0813 35.7178 31.9854 35.7289C31.8485 35.7444 31.7107 35.7511 31.5729 35.749C31.0222 35.749 30.4756 35.7319 29.933 35.6977C29.3905 35.6635 28.8438 35.6464 28.2931 35.6464C27.7981 35.6464 27.3065 35.6635 26.8182 35.6977C26.3299 35.7319 25.8386 35.749 25.3444 35.749C25.2304 35.7487 25.1165 35.742 25.0033 35.7289C24.8862 35.7144 24.8282 35.6319 24.8282 35.4814C24.82 35.415 24.8337 35.3478 24.8673 35.29C24.901 35.2322 24.9526 35.1871 25.0144 35.1615C25.1392 35.1131 25.2719 35.0885 25.4057 35.089C25.4957 35.0918 25.5858 35.0851 25.6744 35.0689C26.0017 35.0433 26.3242 34.9739 26.6331 34.8627C26.8501 34.7837 27.0397 34.644 27.1794 34.4602C27.312 34.2661 27.3968 34.0434 27.4269 33.8103C27.472 33.4894 27.4925 33.1655 27.4882 32.8415V22.8504C27.4882 22.7813 27.4849 22.6542 27.4782 22.4691C27.4765 22.3412 27.4664 22.2134 27.4481 22.0868C27.4206 21.9634 27.2623 21.8775 26.9732 21.8292C26.6665 21.7797 26.3563 21.7554 26.0456 21.7568H24.7691C24.458 21.7559 24.1485 21.801 23.8505 21.8905C23.5281 21.997 23.2349 22.1772 22.9943 22.4167C22.8863 22.5488 22.7963 22.6946 22.7268 22.8504C22.6153 23.0734 22.5038 23.2963 22.3767 23.5416C22.2496 23.7869 22.1315 23.9987 22.0155 24.1904C21.8996 24.3822 21.8126 24.4792 21.758 24.4792C21.6483 24.4876 21.539 24.4585 21.4481 24.3967C21.409 24.3561 21.3795 24.3074 21.3617 24.2539C21.344 24.2005 21.3384 24.1437 21.3455 24.0879C21.3595 23.7691 21.4149 23.4536 21.5105 23.1492C21.6453 22.6042 21.7348 22.049 21.7781 21.4892C21.7914 21.3376 21.8059 21.1759 21.8193 21.0043C21.8301 20.8463 21.8612 20.6904 21.9118 20.5405C21.9573 20.4122 22.0339 20.2973 22.1348 20.206C22.2496 20.1093 22.3975 20.0609 22.5473 20.0711C22.5828 20.0723 22.6175 20.0825 22.6481 20.1006C22.6787 20.1187 22.7042 20.1442 22.7223 20.1748C22.7703 20.2439 22.8338 20.322 22.8973 20.4123C22.977 20.5115 23.0709 20.5982 23.1761 20.6698C23.3215 20.7613 23.4892 20.8111 23.661 20.8136C24.486 20.8552 25.3314 20.8865 26.1972 20.9073C27.0631 20.9281 27.9089 20.9381 28.7346 20.9374C29.3946 20.9374 30.0304 20.9307 30.6421 20.9173C31.2537 20.9039 31.8895 20.8969 32.5495 20.8961C32.7554 20.8961 32.965 20.8928 33.1783 20.8861C33.389 20.8798 33.5992 20.8627 33.8082 20.8348C33.9605 20.813 34.1035 20.7484 34.2207 20.6486C34.3264 20.5526 34.4217 20.4458 34.5049 20.3298C34.5874 20.2183 34.6554 20.1202 34.7101 20.031C34.7265 19.9942 34.7524 19.9623 34.7851 19.9386C34.8177 19.9149 34.8561 19.9003 34.8962 19.8961C35.1304 19.8961 35.2775 19.9864 35.3422 20.1648C35.4032 20.3253 35.4056 20.5022 35.3489 20.6642Z" fill="black"/>
<path d="M45.3109 27.7592C45.3112 27.9116 45.2832 28.0628 45.2284 28.2051C45.1787 28.3424 45.0885 28.4613 44.9698 28.5462C44.8379 28.6325 44.6808 28.6717 44.5239 28.6577C44.2974 28.6315 44.0829 28.5418 43.9051 28.3991C43.8491 28.3653 43.8005 28.3205 43.7621 28.2674C43.7238 28.2144 43.6966 28.1541 43.6822 28.0903C43.6476 27.9532 43.6097 27.8149 43.5707 27.6778C43.5334 27.5501 43.4778 27.4284 43.4057 27.3166C43.3622 27.2612 43.3052 27.2179 43.2402 27.1908C43.1753 27.1637 43.1044 27.1536 43.0345 27.1616C42.7521 27.1602 42.4721 27.2128 42.2095 27.3166C41.9588 27.4141 41.7229 27.5458 41.5083 27.7079C41.3101 27.8574 41.1422 28.0431 41.0133 28.2553C40.895 28.4403 40.8306 28.6545 40.8271 28.874V33.8852C40.8295 33.9755 40.8404 34.0655 40.8594 34.1538C40.8762 34.3578 40.9539 34.552 41.0824 34.7112C41.1961 34.8472 41.3411 34.9535 41.5049 35.0212C41.6789 35.0924 41.8635 35.1342 42.0512 35.1449C42.2507 35.1583 42.4469 35.165 42.6387 35.165C42.7636 35.165 42.8249 35.2887 42.8249 35.5362C42.8305 35.5741 42.8224 35.6127 42.8019 35.645C42.7814 35.6774 42.75 35.7013 42.7134 35.7124C42.6429 35.7317 42.5702 35.7419 42.4971 35.7425C42.1555 35.7428 41.8142 35.7189 41.4759 35.6711C41.1381 35.6223 40.7972 35.5981 40.4559 35.5986C40.0697 35.5983 39.684 35.6225 39.3009 35.6711C38.9174 35.7187 38.5313 35.7426 38.1448 35.7425C38.0425 35.7386 37.9416 35.7179 37.846 35.6811C37.7929 35.6662 37.7466 35.6334 37.7147 35.5884C37.6828 35.5433 37.6674 35.4887 37.671 35.4337C37.6667 35.3727 37.6855 35.3123 37.7237 35.2645C37.762 35.2168 37.8168 35.1852 37.8773 35.1761C38.0144 35.1416 38.166 35.107 38.331 35.0724C38.4999 35.0367 38.6631 34.9778 38.816 34.8974C38.8998 34.8475 38.9706 34.7785 39.0225 34.6959C39.0744 34.6134 39.106 34.5197 39.1147 34.4225C39.1691 34.1504 39.2037 33.8747 39.2184 33.5975C39.2318 33.3233 39.2385 33.0483 39.2385 32.7726C39.2385 32.2367 39.2351 31.7417 39.2284 31.2876C39.2206 30.8339 39.2184 30.3389 39.2184 29.8027C39.2184 29.6243 39.2184 29.4392 39.2073 29.2452C39.2026 29.0613 39.1648 28.8796 39.0958 28.709C39.0529 28.5627 38.9661 28.4331 38.8472 28.3378C38.7431 28.2611 38.6332 28.1929 38.5183 28.1338C38.4146 28.0791 38.3187 28.0223 38.2295 27.9688C38.1858 27.9429 38.1489 27.9069 38.122 27.8639C38.095 27.8208 38.0787 27.7719 38.0746 27.7213C38.1029 27.6515 38.154 27.5934 38.2195 27.5563C38.2875 27.515 38.35 27.4805 38.4046 27.4526C38.5417 27.3846 38.6755 27.3155 38.807 27.2464C38.9386 27.1772 39.0712 27.1025 39.2095 27.0234C39.3244 26.9573 39.4344 26.8827 39.5384 26.8004L39.9107 26.5117C40.0297 26.4191 40.1536 26.3332 40.2819 26.2542C40.3831 26.1871 40.4969 26.1415 40.6164 26.1204C40.633 26.1137 40.651 26.1111 40.6689 26.1128C40.6868 26.1146 40.7039 26.1206 40.719 26.1304C40.7449 26.1499 40.7725 26.167 40.8015 26.1817C40.8351 26.2603 40.8558 26.3439 40.8628 26.4292C40.8778 26.5523 40.8849 26.6764 40.884 26.8004V27.4403C40.8973 27.3857 40.9954 27.2887 41.1727 27.1516C41.3887 26.9903 41.6163 26.8454 41.8539 26.7179C42.1451 26.5597 42.4485 26.4251 42.7613 26.3155C43.079 26.2013 43.4138 26.1421 43.7513 26.1404C44.0109 26.1311 44.269 26.1843 44.5038 26.2954C44.6913 26.3896 44.8563 26.5231 44.9876 26.6867C45.11 26.8419 45.1982 27.0212 45.2463 27.2129C45.2895 27.3918 45.3112 27.5752 45.3109 27.7592Z" fill="black"/>
<path d="M58.3856 34.1315C58.3757 34.1943 58.3623 34.2565 58.3455 34.3177C58.2444 34.7435 57.996 35.1198 57.6443 35.3802C57.2942 35.6452 56.8659 35.7863 56.4269 35.7815C55.9735 35.7815 55.616 35.6373 55.3544 35.3489C55.0864 35.0483 54.8952 34.6872 54.797 34.2965C54.6315 34.5173 54.4411 34.7182 54.2295 34.8952C53.9953 35.0929 53.7434 35.2686 53.477 35.4203C53.2068 35.5764 52.9195 35.7009 52.6208 35.7915C52.3437 35.8787 52.0552 35.9242 51.7647 35.9264C51.0638 35.9264 50.5722 35.7235 50.2897 35.3177C50.0073 34.9119 49.8665 34.3998 49.8672 33.7815C49.8652 33.4862 49.9476 33.1965 50.1047 32.9465C50.2666 32.6863 50.4682 32.4531 50.7022 32.2553C50.9424 32.0491 51.204 31.8693 51.4826 31.7191C51.7397 31.5791 52.0052 31.4552 52.2775 31.3478C52.7576 31.1694 53.1939 31.0149 53.5863 30.8841C53.9787 30.7533 54.422 30.6258 54.9163 30.5017V28.9142C54.9163 28.3367 54.81 27.8725 54.5974 27.5217C54.3849 27.1709 53.969 26.9955 53.3499 26.9955C53.0067 26.9796 52.6653 27.0542 52.36 27.2118C51.9318 27.4513 51.6124 27.8466 51.4681 28.3155C51.4135 28.5084 51.3722 28.6499 51.3444 28.7492C51.2684 28.9791 51.1157 29.1759 50.9118 29.3066C50.6998 29.4537 50.4475 29.5316 50.1894 29.5295C50.1281 29.5379 50.0659 29.5222 50.0159 29.4856C49.966 29.4489 49.9323 29.3944 49.9219 29.3333C49.8955 29.2147 49.8817 29.0936 49.8806 28.9721C49.8806 28.6421 50.0181 28.3021 50.2931 27.9521C50.5858 27.5829 50.9253 27.2535 51.3031 26.9721C51.7058 26.672 52.1458 26.4255 52.6119 26.2386C53.0149 26.06 53.4489 25.9619 53.8895 25.9498C54.0105 25.9517 54.1311 25.9618 54.2507 25.9799C54.3957 26.0011 54.5428 26.0256 54.6967 26.0524C54.843 26.0791 54.9878 26.1137 55.1303 26.1561C55.2451 26.1879 55.3569 26.2293 55.4648 26.2798C55.9181 26.5139 56.1998 26.8198 56.3098 27.1973C56.4215 27.6088 56.4744 28.0341 56.467 28.4604C56.467 28.9807 56.4603 29.534 56.4469 30.1204C56.4336 30.7068 56.4265 31.2601 56.4258 31.7804C56.4258 31.9041 56.4258 32.087 56.4157 32.3266C56.4057 32.5663 56.4079 32.8149 56.4157 33.0691C56.4235 33.3233 56.4358 33.5641 56.457 33.7915C56.4586 33.9526 56.4967 34.1111 56.5685 34.2553C56.6217 34.3509 56.7107 34.4214 56.8159 34.4515C56.9241 34.4859 57.0369 34.5032 57.1504 34.5028C57.2781 34.5078 57.4052 34.483 57.5216 34.4303C57.6112 34.3868 57.6945 34.3313 57.7691 34.2653C57.8371 34.204 57.8996 34.146 57.9542 34.0903C58.0044 34.038 58.0693 34.0022 58.1404 33.9877C58.3042 33.9465 58.3856 33.9944 58.3856 34.1315ZM54.9062 31.4783C54.9015 31.3919 54.8914 31.3059 54.8761 31.2207C54.7524 31.2486 54.6075 31.2854 54.4425 31.3322C54.2775 31.379 54.108 31.4359 53.9375 31.4972C53.7669 31.5585 53.603 31.621 53.4425 31.6834C53.2819 31.7458 53.1437 31.7949 53.02 31.8383C52.6473 31.9763 52.3016 32.1785 51.9988 32.4359C51.8477 32.5609 51.7273 32.7188 51.6467 32.8976C51.5661 33.0763 51.5275 33.2711 51.5339 33.4671C51.5201 33.8039 51.6142 34.1363 51.8026 34.4158C51.9809 34.6633 52.2905 34.7871 52.7312 34.7871C53.036 34.7829 53.3357 34.7089 53.6075 34.5708C53.8816 34.4414 54.1298 34.2631 54.3399 34.0446C54.4765 33.8983 54.5941 33.7354 54.69 33.5596C54.7967 33.3943 54.867 33.208 54.8962 33.0134C54.8943 32.9482 54.8977 32.8829 54.9062 32.8183C54.9115 32.7944 54.9149 32.7702 54.9163 32.7458V31.8383C54.9193 31.7046 54.9159 31.5845 54.9062 31.4783Z" fill="black"/>
<path d="M65.9138 26.6654C65.9138 27.9029 65.9105 29.1233 65.9038 30.3265C65.8971 31.5298 65.8934 32.7502 65.8926 33.9876C65.8926 34.4276 65.8826 34.8814 65.8625 35.3488C65.8425 35.8163 65.8053 36.2701 65.7511 36.71C65.6581 37.5348 65.3365 38.3171 64.8224 38.9687C64.3112 39.6092 63.7127 40.1747 63.0442 40.6487C62.9419 40.7268 62.8354 40.7993 62.7254 40.8661C62.6189 40.9419 62.4943 40.988 62.3642 40.9999H62.323C62.2951 40.9442 62.2717 40.8884 62.2505 40.8449C62.2287 40.7947 62.1972 40.7493 62.158 40.7112C62.1852 40.6552 62.2197 40.6031 62.2605 40.5562C62.3018 40.5083 62.343 40.4559 62.3843 40.4012C62.6184 40.1255 62.8488 39.8609 63.0755 39.6075C63.3116 39.34 63.5159 39.0459 63.6842 38.7312C63.8715 38.3729 64.0102 37.9913 64.0966 37.5963C64.1797 37.2057 64.2349 36.8097 64.2616 36.4113C64.2884 36.0055 64.2995 35.5997 64.2929 35.1939C64.2862 34.7881 64.2817 34.3867 64.2817 33.9876C64.2817 33.2444 64.2854 32.4986 64.2929 31.7502C64.3003 31.0018 64.3036 30.2556 64.3029 29.5116C64.3029 29.3611 64.3029 29.1649 64.2929 28.9241C64.2974 28.7359 64.2593 28.5492 64.1814 28.3778C64.1111 28.2256 63.9912 28.1018 63.8414 28.0267C63.7054 27.9616 63.5635 27.9097 63.4177 27.8717C63.2806 27.8382 63.1602 27.8037 63.0576 27.7691C63.0105 27.757 62.9692 27.7287 62.9409 27.6891C62.9126 27.6496 62.899 27.6013 62.9027 27.5529C62.9042 27.5108 62.9141 27.4694 62.9317 27.4311C62.9493 27.3929 62.9743 27.3585 63.0052 27.3299C63.0877 27.2753 63.2639 27.1794 63.5314 27.0411C63.799 26.9029 64.0888 26.7602 64.3876 26.6086C64.6864 26.457 64.9684 26.3232 65.2226 26.2061C65.3745 26.1235 65.538 26.0645 65.7076 26.0311C65.7427 26.0293 65.7778 26.0358 65.81 26.0501C65.8422 26.0645 65.8705 26.0862 65.8926 26.1136C65.8926 26.2095 65.8926 26.302 65.9038 26.3923C65.9149 26.4826 65.9138 26.5729 65.9138 26.6654ZM66.0989 21.2028C66.1019 21.3513 66.0753 21.4988 66.0206 21.6369C65.9658 21.7749 65.884 21.9006 65.78 22.0066C65.6783 22.1149 65.555 22.2006 65.4181 22.2582C65.2812 22.3158 65.1337 22.344 64.9852 22.341C64.6982 22.3321 64.4255 22.2141 64.2225 22.0111C64.0195 21.8081 63.9016 21.5354 63.8926 21.2485C63.8856 20.95 63.9965 20.6608 64.2014 20.4436C64.3003 20.3356 64.421 20.2499 64.5556 20.1922C64.6901 20.1346 64.8354 20.1062 64.9818 20.1091C65.1283 20.1053 65.274 20.1307 65.4105 20.1839C65.547 20.2372 65.6715 20.3171 65.7767 20.4191C65.8819 20.5196 65.965 20.6411 66.0205 20.7757C66.0759 20.9103 66.1027 21.055 66.0989 21.2006V21.2028Z" fill="black"/>
<path d="M80.4538 34.1315C80.4438 34.1944 80.4301 34.2565 80.4126 34.3177C80.3118 34.7436 80.0634 35.1201 79.7114 35.3802C79.3617 35.6451 78.9338 35.7863 78.4951 35.7815C78.041 35.7815 77.6835 35.6373 77.4226 35.3489C77.1547 35.0482 76.9635 34.6871 76.8652 34.2965C76.7 34.5175 76.5096 34.7185 76.2978 34.8952C76.0639 35.0934 75.8119 35.2692 75.5452 35.4203C75.2754 35.5764 74.9885 35.7009 74.6902 35.7915C74.413 35.8786 74.1245 35.9241 73.834 35.9264C73.1331 35.9264 72.6415 35.7235 72.3591 35.3177C72.0766 34.9119 71.9358 34.3998 71.9366 33.7815C71.9348 33.4864 72.0168 33.1969 72.1729 32.9465C72.3355 32.6865 72.5375 32.4534 72.7716 32.2553C73.0117 32.0491 73.2733 31.8693 73.5519 31.7191C73.8087 31.5792 74.0737 31.4552 74.3457 31.3478C74.8273 31.1694 75.2639 31.0149 75.6556 30.8841C76.0473 30.7533 76.4906 30.6258 76.9856 30.5017V28.9142C76.9856 28.3367 76.879 27.8725 76.6656 27.5217C76.4523 27.1709 76.0369 26.9955 75.4193 26.9955C75.076 26.9798 74.7347 27.0543 74.4293 27.2118C74.1997 27.3412 73.9996 27.5169 73.8418 27.728C73.709 27.9051 73.6079 28.1039 73.543 28.3155C73.4873 28.5084 73.446 28.6499 73.4193 28.7492C73.3428 28.9792 73.1897 29.1759 72.9856 29.3066C72.7741 29.4538 72.522 29.5317 72.2643 29.5295C72.2028 29.538 72.1405 29.5222 72.0904 29.4856C72.0403 29.449 72.0063 29.3945 71.9956 29.3333C71.9693 29.2147 71.9554 29.0936 71.9544 28.9721C71.9544 28.6421 72.0919 28.3021 72.3669 27.9521C72.6602 27.5832 73.0001 27.2538 73.378 26.9721C73.7782 26.6725 74.2155 26.426 74.679 26.2386C75.0824 26.0599 75.5168 25.9619 75.9577 25.9498C76.0787 25.9518 76.1993 25.9618 76.3189 25.9799C76.4639 26.0011 76.611 26.0256 76.7649 26.0524C76.9108 26.0791 77.0552 26.1137 77.1974 26.1561C77.3122 26.1879 77.424 26.2293 77.5319 26.2798C77.986 26.5139 78.268 26.8198 78.378 27.1973C78.491 27.6087 78.5457 28.0339 78.5408 28.4604C78.5408 28.9807 78.5337 29.534 78.5196 30.1204C78.5055 30.7068 78.4988 31.2601 78.4995 31.7804C78.4995 31.9041 78.4995 32.087 78.4895 32.3266C78.4795 32.5663 78.4817 32.8149 78.4895 33.0691C78.4973 33.3233 78.5096 33.5641 78.5308 33.7915C78.533 33.9525 78.5711 34.1109 78.6422 34.2553C78.6955 34.3509 78.7845 34.4214 78.8897 34.4515C78.9979 34.4858 79.1107 34.5031 79.2242 34.5028C79.3519 34.5081 79.4791 34.4833 79.5954 34.4303C79.685 34.3868 79.7683 34.3313 79.8429 34.2653C79.912 34.204 79.9733 34.146 80.0291 34.0903C80.0789 34.0381 80.1435 34.0023 80.2141 33.9877C80.3739 33.9498 80.4538 33.9978 80.4538 34.1315ZM76.98 31.4783C76.975 31.3919 76.9645 31.3058 76.9488 31.2207C76.8251 31.2486 76.6813 31.2854 76.5163 31.3322C76.3513 31.379 76.1818 31.4359 76.0101 31.4972C75.8384 31.5585 75.6757 31.621 75.5163 31.6834C75.3568 31.7458 75.2164 31.7949 75.0926 31.8383C74.7203 31.9763 74.375 32.1786 74.0726 32.4359C73.9215 32.5609 73.8011 32.7188 73.7205 32.8976C73.6399 33.0763 73.6013 33.2711 73.6077 33.4671C73.5933 33.804 73.6875 34.1365 73.8763 34.4158C74.0547 34.6633 74.3639 34.7871 74.8039 34.7871C75.1087 34.783 75.4085 34.709 75.6801 34.5708C75.9545 34.4417 76.2027 34.2634 76.4126 34.0446C76.5499 33.8986 76.6679 33.7357 76.7638 33.5596C76.87 33.394 76.9403 33.2079 76.97 33.0134C76.9681 32.9482 76.9715 32.8829 76.98 32.8183C76.9853 32.7944 76.9887 32.7702 76.9901 32.7458V31.8383C76.9893 31.7046 76.986 31.5845 76.98 31.4783Z" fill="black"/>
<path d="M92.5808 27.7592C92.581 27.9117 92.5531 28.0628 92.4983 28.2051C92.449 28.3423 92.3592 28.4613 92.2408 28.5463C92.1088 28.6322 91.9518 28.6715 91.7949 28.6577C91.5685 28.6311 91.3541 28.5415 91.1761 28.3991C91.1211 28.3649 91.0736 28.3199 91.0364 28.2668C90.9993 28.2137 90.9732 28.1537 90.9599 28.0903C90.9253 27.9532 90.8874 27.8149 90.8484 27.6778C90.8116 27.5499 90.756 27.4282 90.6834 27.3166C90.6399 27.2612 90.5829 27.2179 90.5179 27.1908C90.4529 27.1637 90.3821 27.1536 90.3121 27.1616C90.0298 27.1602 89.7498 27.2128 89.4872 27.3166C89.2366 27.4144 89.0007 27.5461 88.7859 27.7079C88.5878 27.8574 88.4198 28.0432 88.291 28.2553C88.1736 28.4406 88.1095 28.6547 88.1059 28.874V33.8852C88.105 33.9752 88.1125 34.0652 88.1282 34.1538C88.1431 34.3571 88.2184 34.5512 88.3445 34.7113C88.4588 34.847 88.6041 34.9533 88.7681 35.0212C88.9421 35.0924 89.1267 35.1342 89.3144 35.1449C89.5139 35.1583 89.709 35.165 89.9019 35.165C90.0256 35.165 90.0881 35.2887 90.0881 35.5362C90.0935 35.5741 90.0852 35.6126 90.0648 35.6449C90.0444 35.6771 90.0131 35.7011 89.9766 35.7124C89.9061 35.7317 89.8334 35.7418 89.7603 35.7425C89.4187 35.7428 89.0774 35.719 88.7391 35.6711C88.4009 35.6224 88.0596 35.5981 87.7179 35.5987C87.3318 35.5984 86.946 35.6226 86.563 35.6711C86.1798 35.7188 85.7941 35.7426 85.408 35.7425C85.3057 35.7388 85.2047 35.7181 85.1092 35.6812C85.0553 35.6621 85.0091 35.626 84.9775 35.5783C84.946 35.5306 84.9308 35.4739 84.9343 35.4169C84.9379 35.3598 84.9599 35.3054 84.9971 35.262C85.0343 35.2186 85.0846 35.1884 85.1405 35.1761C85.2776 35.1416 85.4292 35.107 85.5942 35.0725C85.7628 35.0367 85.9256 34.9778 86.078 34.8974C86.1622 34.8478 86.2333 34.7789 86.2854 34.6963C86.3376 34.6137 86.3693 34.5198 86.3779 34.4225C86.4324 34.1504 86.4667 33.8747 86.4805 33.5975C86.4939 33.3233 86.5017 33.0479 86.5017 32.7726C86.5017 32.2367 86.4979 31.7417 86.4905 31.2876C86.4831 30.8335 86.4782 30.3396 86.476 29.806C86.476 29.6276 86.476 29.4426 86.466 29.2486C86.4613 29.0646 86.4235 28.883 86.3545 28.7124C86.3125 28.566 86.226 28.4362 86.107 28.3411C86.0059 28.2638 85.899 28.1944 85.7871 28.1338C85.6845 28.0792 85.5875 28.0223 85.4983 27.9688C85.4548 27.9427 85.4182 27.9067 85.3915 27.8636C85.3647 27.8206 85.3486 27.7718 85.3445 27.7213C85.372 27.6514 85.4228 27.5931 85.4883 27.5563C85.5574 27.515 85.6187 27.4805 85.6745 27.4526C85.8116 27.3846 85.9454 27.3155 86.0758 27.2464C86.2062 27.1773 86.3411 27.1026 86.4783 27.0234C86.595 26.9572 86.7067 26.8827 86.8127 26.8004L87.1839 26.5117C87.3003 26.414 87.422 26.3228 87.5485 26.2386C87.6497 26.1717 87.7635 26.1262 87.8829 26.1048C87.8997 26.0979 87.9179 26.0952 87.936 26.097C87.9541 26.0987 87.9715 26.1048 87.9866 26.1148C88.0124 26.1345 88.04 26.1517 88.0691 26.1661C88.1022 26.2449 88.1229 26.3284 88.1304 26.4136C88.1449 26.5368 88.152 26.6608 88.1516 26.7848V27.4247C88.165 27.3701 88.2631 27.2731 88.4403 27.136C88.6559 26.9747 88.8832 26.8297 89.1204 26.7023C89.4117 26.5443 89.7152 26.4097 90.0279 26.2999C90.3455 26.1857 90.6803 26.1265 91.0178 26.1249C91.2774 26.1155 91.5355 26.1687 91.7703 26.2798C91.9582 26.374 92.1235 26.5074 92.2553 26.6711C92.3774 26.8263 92.4651 27.0057 92.5128 27.1973C92.5584 27.3811 92.5812 27.5698 92.5808 27.7592Z" fill="black"/>
</svg>
