<svg width="128" height="57" viewBox="0 0 128 57" fill="none" xmlns="http://www.w3.org/2000/svg">
<path d="M16.1529 4.10717C17.3261 5.07275 19.5533 6.4165 23.0313 6.62883V47.3365H2.16209V18.0825C3.52778 17.4026 4.78205 16.5189 5.8818 15.4616C7.89665 13.5212 10.0913 10.2246 9.9301 5.15954L16.1467 4.10717H16.1529ZM16.8565 1.78235L7.59442 3.35548C9.1629 13.7536 0 16.6473 0 16.6473V49.5048H25.2011V4.43575C24.778 4.47139 24.3719 4.48689 23.9844 4.48689C19.0155 4.48689 16.8627 1.787 16.8627 1.787L16.8565 1.78235Z" fill="#007A9B"/>
<path d="M40.7679 10.7221C41.1502 10.8761 41.5181 11.215 41.8715 11.7389C42.267 12.3405 42.6217 12.9681 42.9331 13.6173C43.2865 14.3406 43.6642 15.1104 44.0661 15.9266C44.4601 16.7267 44.9102 17.4979 45.4129 18.2344C45.8877 18.9351 46.4462 19.5753 47.076 20.1408C47.6761 20.6801 48.408 21.0511 49.1978 21.2164C49.4046 21.3103 49.6207 21.3825 49.8425 21.4318C50.0626 21.4783 50.1726 21.5868 50.1726 21.7604C50.1726 21.8751 50.0874 22.0192 49.9138 22.1913C49.5784 22.2834 49.2306 22.3221 48.8831 22.306C48.6909 22.306 48.5003 22.2951 48.3097 22.2765C48.119 22.2579 47.9548 22.2378 47.8215 22.2192C46.1972 21.933 44.8354 21.2737 43.736 20.2415C42.6218 19.1879 41.7635 17.8932 41.2267 16.4567C40.9012 15.845 40.6 15.2142 40.3231 14.5643C40.064 13.948 39.7475 13.3575 39.3777 12.8005C39.0428 12.2972 38.6233 11.8557 38.1378 11.4955C37.6311 11.1396 37.0223 10.9584 36.4035 10.9794C36.0207 10.9794 35.7835 11.0569 35.7014 11.2088C35.6192 11.3607 35.5712 11.6738 35.5712 12.1263V18.0345C35.5497 18.4168 35.6138 18.7991 35.7587 19.1535C35.8677 19.3857 36.0487 19.5765 36.2748 19.6975C36.5218 19.8211 36.789 19.8988 37.0637 19.9269C37.3737 19.9662 37.7178 20.0235 38.0959 20.0989C38.1696 20.1243 38.2477 20.1344 38.3253 20.1284C38.4704 20.1271 38.615 20.1464 38.7546 20.1857C38.8172 20.2011 38.8721 20.2386 38.9091 20.2913C38.9462 20.344 38.9629 20.4084 38.9561 20.4724C38.9561 20.7406 38.86 20.9018 38.6694 20.9591C38.3879 21.0267 38.0985 21.0559 37.8092 21.0459C37.1211 21.0459 36.4329 21.0123 35.7448 20.9452C35.0551 20.8785 34.3778 20.8444 33.7082 20.8444C33.1162 20.8444 32.5272 20.8739 31.9445 20.9312C31.3617 20.9886 30.7743 21.0165 30.1822 21.0165C30.0162 21.0313 29.8489 21.0069 29.694 20.9452C29.6181 20.8971 29.5793 20.7406 29.5793 20.4724C29.5795 20.4073 29.6025 20.3442 29.6444 20.2944C29.6864 20.2445 29.7445 20.211 29.8087 20.1997C30.0013 20.1434 30.1976 20.1004 30.3961 20.071C30.6348 20.0323 30.889 19.9889 31.1571 19.9408C31.4237 19.8937 31.6805 19.802 31.9166 19.6696C32.184 19.5286 32.404 19.3121 32.5492 19.047C32.6945 18.7819 32.7585 18.4799 32.7334 18.1786V12.2705C32.7334 10.6462 32.7478 9.0307 32.7768 7.42399C32.8057 5.81728 32.8201 4.2023 32.8201 2.57906C32.8386 2.26582 32.7584 1.95469 32.5908 1.68943C32.4442 1.48481 32.2387 1.32966 32.0018 1.24461C31.757 1.15832 31.5014 1.10617 31.2424 1.08962C30.9742 1.07102 30.7216 1.05087 30.4829 1.03227C30.2828 1.02136 30.0851 0.982764 29.8955 0.917584C29.8241 0.894444 29.7626 0.84788 29.721 0.785433C29.6794 0.722986 29.66 0.648313 29.6661 0.57351C29.6661 0.30538 29.7653 0.147292 29.9668 0.0992458C30.17 0.0517624 30.3781 0.0278401 30.5868 0.0279514C30.796 0.0279514 31.0114 0.0388003 31.2315 0.0573989C31.4516 0.0759975 31.6655 0.0852968 31.8763 0.0852968H34.3716C35.0949 0.0852968 35.8259 0.0708315 36.5647 0.0419003C37.3034 0.0129692 38.0345 -0.000979811 38.7578 5.3444e-05C39.443 0.00614033 40.1254 0.0877436 40.7927 0.243385C41.5222 0.406984 42.2136 0.708984 42.8293 1.13302C43.4798 1.58413 44.0193 2.17716 44.4071 2.86734C44.8266 3.59061 45.0368 4.51744 45.0379 5.64782C45.042 6.23839 44.9093 6.8219 44.6504 7.35269C44.3932 7.87629 44.0542 8.35554 43.6461 8.77239C43.2314 9.19613 42.7696 9.57105 42.2698 9.88985C41.789 10.2017 41.2872 10.4797 40.7679 10.7221ZM42.1163 5.56103C42.1316 4.87089 42.0044 4.18501 41.7428 3.54618C41.5116 2.99596 41.1642 2.50217 40.7245 2.09859C40.2811 1.69863 39.759 1.39562 39.1917 1.20896C38.5627 1.00239 37.904 0.900806 37.242 0.908284C36.5724 0.908284 36.1328 1.02763 35.923 1.26631C35.7133 1.50499 35.6099 1.85371 35.613 2.31248V3.2951C35.613 4.06075 35.6032 4.92093 35.5836 5.87566C35.564 6.83038 35.5547 7.69057 35.5557 8.45621C35.5557 8.74294 35.5557 8.98782 35.5417 9.18775C35.5276 9.35728 35.5471 9.52794 35.5991 9.68992C35.625 9.75847 35.6665 9.82005 35.7203 9.86981C35.7741 9.91958 35.8387 9.95615 35.9091 9.97665C36.1568 10.0443 36.4135 10.073 36.6701 10.0619C37.3908 10.0657 38.1104 10.0034 38.8197 9.8759C39.4411 9.77209 40.0333 9.53753 40.5572 9.18775C41.0558 8.83998 41.4519 8.36466 41.7041 7.81146C41.9789 7.2287 42.1163 6.47856 42.1163 5.56103Z" fill="white"/>
<path d="M66.8601 12.1558C66.8708 12.3535 66.8313 12.5508 66.7454 12.7292C66.6443 12.7463 66.5424 12.7582 66.4401 12.7649C66.3397 12.7752 66.2388 12.7804 66.1379 12.7804H59.0007C58.9027 12.7842 58.8059 12.8036 58.714 12.8377C58.6566 12.8377 58.6179 12.9137 58.5993 13.0671C58.5792 13.2213 58.5693 13.3766 58.5698 13.5321V13.7614C58.5858 14.5144 58.6783 15.2637 58.8457 15.9979C58.9903 16.6617 59.2579 17.2925 59.6346 17.8578C59.999 18.3956 60.4917 18.834 61.0682 19.1333C61.6603 19.4495 62.396 19.6076 63.2753 19.6076C63.5977 19.6111 63.9196 19.582 64.2362 19.5208C64.504 19.4668 64.7642 19.3804 65.0111 19.2635C65.262 19.1412 65.5016 18.9971 65.7272 18.8327C65.9659 18.6611 66.2288 18.47 66.5161 18.2592C66.5891 18.2314 66.6679 18.2219 66.7454 18.2313C66.8787 18.2313 66.9454 18.2887 66.9454 18.4033C66.9298 18.5395 66.8761 18.6684 66.7904 18.7753C66.6799 18.9373 66.5598 19.0926 66.4308 19.2403C66.2999 19.391 66.1613 19.5348 66.0155 19.6711C65.8729 19.8044 65.7613 19.9005 65.6853 19.9579C65.1733 20.406 64.5924 20.7687 63.965 21.0319C63.3324 21.2656 62.6614 21.3776 61.9873 21.3621C61.1695 21.3814 60.3572 21.2227 59.6067 20.8971C58.9333 20.5926 58.3361 20.142 57.8584 19.5782C57.3735 18.9997 57.0051 18.3329 56.7735 17.6145C56.5156 16.8334 56.3781 16.0176 56.3659 15.1951C56.3478 14.28 56.4341 13.3659 56.6232 12.4704C56.7974 11.5965 57.1175 10.7582 57.5701 9.99058C58.0031 9.26195 58.5988 8.64341 59.3107 8.18342C60.0267 7.71536 60.8915 7.48132 61.9052 7.48132C63.0521 7.48132 64.0337 7.72517 64.8499 8.21287C65.6662 8.70056 66.2443 9.51787 66.5843 10.6648C66.6593 10.9098 66.7214 11.1587 66.7702 11.4103C66.8139 11.6569 66.8439 11.9058 66.8601 12.1558ZM64.4795 10.75C64.4791 10.4228 64.4055 10.0997 64.2641 9.8046C64.1266 9.50634 63.9377 9.23459 63.7061 9.00176C63.4782 8.77384 63.2109 8.58901 62.9172 8.4562C62.6338 8.32577 62.3257 8.25759 62.0137 8.25626C61.6033 8.25868 61.1999 8.36193 60.8388 8.55694C60.4558 8.75812 60.1111 9.02516 59.8206 9.34583C59.5248 9.67058 59.2873 10.0439 59.1185 10.4493C58.9517 10.834 58.8636 11.2483 58.8596 11.6676C58.8596 11.745 58.9216 11.7962 59.0456 11.8225C59.1873 11.854 59.3315 11.8732 59.4765 11.8799C59.6339 11.8892 59.7918 11.8892 59.9492 11.8799C60.1042 11.8706 60.1972 11.8659 60.2359 11.8659C60.7701 11.8659 61.2149 11.8706 61.5704 11.8799C61.9258 11.8892 62.3608 11.8742 62.8754 11.8349C63.1048 11.8163 63.3156 11.7977 63.5062 11.7776C63.6781 11.7631 63.8472 11.7245 64.0084 11.6629C64.1531 11.6034 64.2741 11.4977 64.3524 11.3622C64.4482 11.173 64.492 10.9617 64.4795 10.75Z" fill="white"/>
<path d="M78.8736 7.28137C78.9184 7.28588 78.9614 7.30122 78.9989 7.32606C79.0364 7.3509 79.0674 7.3845 79.089 7.42396C79.1434 7.48946 79.1784 7.56895 79.1898 7.65334C79.1892 7.73071 79.1793 7.80773 79.1603 7.88273C79.142 7.95781 79.1326 8.03481 79.1324 8.11211V9.66199L79.1898 9.69144C79.2775 9.65087 79.3556 9.59225 79.4191 9.5194C80.0351 8.9886 80.6969 8.51351 81.3968 8.09971C82.1045 7.69764 82.9079 7.49466 83.7216 7.5123C84.377 7.49018 85.0289 7.61738 85.628 7.88428C86.1136 8.11525 86.5327 8.46559 86.8462 8.90255C87.1664 9.36728 87.3817 9.89615 87.477 10.4524C87.595 11.0909 87.6526 11.739 87.649 12.3882C87.649 12.7705 87.6397 13.143 87.6211 13.5057C87.601 13.8699 87.5917 14.2419 87.5917 14.6247V18.8094C87.5917 19.4583 87.7828 19.8597 88.1651 20.0137C88.615 20.1784 89.092 20.2562 89.5709 20.243C89.612 20.2397 89.653 20.2506 89.6869 20.2741C89.7208 20.2975 89.7455 20.332 89.7569 20.3717C89.7863 20.4596 89.801 20.5518 89.8003 20.6445C89.8 20.7229 89.7853 20.8007 89.7569 20.8738C89.729 20.9498 89.6468 20.9885 89.5135 20.9885C89.25 20.9891 88.9866 20.9746 88.7246 20.9451C88.4627 20.9165 88.1993 20.902 87.9357 20.9017H85.7845C85.6295 20.9017 85.4745 20.9017 85.3195 20.9172C85.1646 20.9327 85.0096 20.9405 84.8546 20.9591C84.6996 20.9777 84.5446 20.9932 84.3896 21.0025C84.2346 21.0118 84.0796 21.0164 83.9247 21.0164C83.7566 21.0122 83.5889 20.9982 83.4225 20.9746C83.2024 20.9457 83.0924 20.8423 83.0924 20.6646C83.0846 20.5842 83.1027 20.5035 83.1439 20.4341C83.1852 20.3647 83.2475 20.3103 83.3217 20.2787C83.5003 20.2038 83.6888 20.1553 83.8813 20.1345C84.1013 20.1051 84.3214 20.0679 84.5415 20.0199C84.752 19.9768 84.9401 19.8597 85.0716 19.6897C85.2362 19.4646 85.3262 19.1936 85.3288 18.9148C85.3474 18.5893 85.3583 18.3119 85.3583 18.0825C85.3769 17.663 85.3862 17.2497 85.3862 16.8426V13.1585C85.3869 12.6705 85.3631 12.1827 85.3149 11.697C85.2766 11.2548 85.1601 10.8229 84.9708 10.4214C84.7898 10.0488 84.5065 9.73542 84.154 9.51785C83.7898 9.28847 83.3031 9.17378 82.6909 9.17378C82.2865 9.16821 81.8841 9.23109 81.5006 9.35976C81.1196 9.49641 80.7505 9.66438 80.3971 9.86193C80.2256 9.95802 80.0107 10.082 79.7524 10.2339C79.5296 10.3513 79.3456 10.5305 79.2223 10.75C79.1725 10.9232 79.1388 11.1007 79.1216 11.2801C79.0921 11.5203 79.0689 11.7931 79.0503 12.0984C79.0317 12.4037 79.0208 12.7184 79.0208 13.0438V18.6358C79.0141 18.9738 79.1133 19.3055 79.3045 19.5843C79.386 19.7116 79.4929 19.8206 79.6185 19.9047C79.7441 19.9887 79.8857 20.0458 80.0344 20.0725C80.3056 20.1106 80.579 20.1298 80.8528 20.1299C81.0117 20.1297 81.1693 20.1586 81.3177 20.2151C81.4324 20.2544 81.4898 20.3577 81.4898 20.5251C81.4947 20.5872 81.4871 20.6497 81.4674 20.7088C81.4477 20.7679 81.4163 20.8224 81.3751 20.8692C81.2737 20.9085 81.1702 20.9422 81.0651 20.9699C80.9561 20.9825 80.8463 20.9872 80.7365 20.9839C80.3222 20.9841 79.9082 20.9603 79.4966 20.9126C79.097 20.8644 78.6949 20.8401 78.2924 20.8397C77.8089 20.8393 77.3258 20.8636 76.8448 20.9126C76.3798 20.9591 75.8932 20.9839 75.3972 20.9839C75.2645 20.9873 75.1325 20.963 75.0097 20.9126C74.9064 20.864 74.8547 20.754 74.8547 20.5825C74.8582 20.5223 74.8791 20.4645 74.9149 20.4161C74.9507 20.3676 74.9998 20.3307 75.0562 20.3097C75.2119 20.2351 75.375 20.1775 75.5429 20.1376C75.7323 20.0901 75.919 20.0327 76.1024 19.9656C76.2624 19.9127 76.4057 19.8187 76.5178 19.6928C76.6925 19.4319 76.7991 19.1314 76.8277 18.8187C76.8709 18.5001 76.8947 18.1792 76.899 17.8578V11.9543C76.9053 11.5596 76.8668 11.1655 76.7843 10.7795C76.7693 10.6821 76.735 10.5888 76.6834 10.5049C76.6317 10.4211 76.5638 10.3484 76.4837 10.2912C76.3243 10.1786 76.1507 10.0874 75.9676 10.02C75.7847 9.95182 75.6219 9.89447 75.4793 9.84643C75.3368 9.79838 75.2639 9.71779 75.2639 9.6031V9.54575C75.341 9.40988 75.4468 9.29246 75.5739 9.20168C75.6498 9.14433 75.856 9.01104 76.1938 8.80026C76.5317 8.58947 76.8928 8.37559 77.2788 8.15551C77.6647 7.93542 78.0227 7.73549 78.3389 7.55415C78.5065 7.44369 78.6858 7.3522 78.8736 7.28137Z" fill="white"/>
<path d="M107.862 12.1557C107.873 12.3534 107.834 12.5507 107.748 12.7291C107.648 12.7482 107.548 12.7621 107.447 12.771C107.344 12.7816 107.241 12.7868 107.137 12.7865H100.006C99.9081 12.7904 99.8113 12.8097 99.7194 12.8438C99.662 12.8438 99.6233 12.9198 99.6047 13.0732C99.5846 13.2274 99.5748 13.3827 99.5753 13.5382V13.7676C99.591 14.5203 99.6824 15.2696 99.848 16.004C99.9926 16.6678 100.26 17.2986 100.637 17.8639C101.001 18.4017 101.494 18.8401 102.071 19.1395C102.663 19.4556 103.398 19.6137 104.278 19.6137C104.6 19.6172 104.922 19.5882 105.239 19.5269C105.506 19.4729 105.767 19.3865 106.013 19.2696C106.264 19.1474 106.504 19.0032 106.73 18.8388C106.968 18.6673 107.231 18.4761 107.518 18.2653C107.591 18.2376 107.67 18.228 107.748 18.2374C107.881 18.2374 107.948 18.2948 107.948 18.4095C107.932 18.5456 107.878 18.6745 107.793 18.7814C107.682 18.9434 107.562 19.0987 107.433 19.2464C107.303 19.3975 107.164 19.5413 107.018 19.6773C106.913 19.7785 106.803 19.8742 106.688 19.964C106.176 20.4121 105.595 20.7748 104.967 21.0381C104.335 21.2718 103.664 21.3838 102.99 21.3682C102.172 21.3875 101.36 21.2288 100.609 20.9032C99.9357 20.5987 99.3385 20.1482 98.8608 19.5843C98.3759 19.0058 98.0075 18.339 97.7758 17.6206C97.5211 16.8426 97.3858 16.0306 97.3744 15.2121C97.3563 14.297 97.4426 13.3829 97.6317 12.4874C97.8059 11.6135 98.1261 10.7751 98.5787 10.0076C99.0103 9.27994 99.6038 8.66156 100.313 8.20039C101.03 7.73232 101.895 7.49829 102.908 7.49829C104.054 7.49829 105.036 7.74214 105.852 8.22984C106.669 8.71753 107.247 9.53484 107.587 10.6817C107.662 10.9268 107.724 11.1756 107.773 11.4272C107.816 11.6683 107.846 11.9114 107.862 12.1557ZM105.482 10.7499C105.481 10.4229 105.408 10.1 105.268 9.80452C105.129 9.50651 104.94 9.23485 104.708 9.00168C104.481 8.77376 104.213 8.58893 103.92 8.45612C103.636 8.32569 103.328 8.25751 103.016 8.25618C102.606 8.2586 102.202 8.36185 101.841 8.55686C101.458 8.75804 101.113 9.02508 100.823 9.34575C100.527 9.6705 100.29 10.0438 100.121 10.4493C99.954 10.834 99.866 11.2482 99.862 11.6675C99.862 11.745 99.924 11.7961 100.05 11.8225C100.191 11.8541 100.334 11.8733 100.479 11.8798C100.634 11.8888 100.789 11.8888 100.944 11.8798C101.099 11.8705 101.192 11.8659 101.231 11.8659C101.766 11.8659 102.211 11.8705 102.565 11.8798C102.919 11.8891 103.354 11.8746 103.868 11.8364C104.098 11.8178 104.309 11.7992 104.499 11.7791C104.671 11.7647 104.84 11.7261 105.001 11.6644C105.147 11.6057 105.268 11.4998 105.345 11.3637C105.445 11.1749 105.492 10.963 105.482 10.7499Z" fill="white"/>
<path d="M126.757 12.1557C126.768 12.3534 126.728 12.5507 126.643 12.7291C126.444 12.7656 126.243 12.7848 126.041 12.7865H118.901C118.803 12.7904 118.706 12.8097 118.614 12.8438C118.557 12.8438 118.518 12.9198 118.499 13.0732C118.481 13.2275 118.471 13.3828 118.472 13.5382V13.7676C118.487 14.5204 118.578 15.2697 118.744 16.004C118.888 16.6677 119.155 17.2985 119.532 17.8639C119.896 18.4013 120.389 18.8397 120.965 19.1395C121.557 19.4556 122.294 19.6137 123.174 19.6137C123.496 19.6172 123.818 19.5882 124.135 19.5269C124.403 19.473 124.663 19.3866 124.91 19.2696C125.161 19.147 125.401 19.0029 125.627 18.8388C125.866 18.6673 126.128 18.4761 126.415 18.2653C126.488 18.2379 126.566 18.2284 126.644 18.2374C126.777 18.2374 126.846 18.2948 126.846 18.4095C126.83 18.5457 126.777 18.6748 126.691 18.7814C126.581 18.9434 126.461 19.0987 126.333 19.2464C126.198 19.4014 126.06 19.544 125.917 19.6773C125.775 19.8106 125.663 19.9066 125.587 19.964C125.075 20.4115 124.494 20.7741 123.867 21.0381C123.234 21.2717 122.562 21.3837 121.887 21.3682C121.07 21.3875 120.258 21.2289 119.508 20.9032C118.835 20.5983 118.237 20.1479 117.759 19.5843C117.274 19.0054 116.906 18.3387 116.674 17.6206C116.42 16.8425 116.284 16.0305 116.272 15.2121C116.255 14.2969 116.341 13.3828 116.531 12.4874C116.705 11.6136 117.024 10.7752 117.476 10.0076C117.909 9.27987 118.503 8.6615 119.212 8.20039C119.928 7.73232 120.793 7.49829 121.807 7.49829C122.954 7.49829 123.935 7.74214 124.752 8.22984C125.568 8.71753 126.146 9.53484 126.486 10.6817C126.562 10.9268 126.624 11.1756 126.674 11.4272C126.714 11.6684 126.742 11.9115 126.757 12.1557ZM124.378 10.7499C124.378 10.4227 124.304 10.0996 124.163 9.80452C124.025 9.50619 123.835 9.23444 123.603 9.00168C123.376 8.77378 123.109 8.58894 122.816 8.45612C122.532 8.32587 122.224 8.2577 121.912 8.25618C121.501 8.25879 121.098 8.36202 120.736 8.55686C120.353 8.75806 120.009 9.0251 119.719 9.34575C119.422 9.67004 119.184 10.0434 119.016 10.4493C118.849 10.834 118.762 11.2483 118.758 11.6675C118.758 11.745 118.82 11.7961 118.944 11.8225C119.086 11.854 119.23 11.8732 119.375 11.8798C119.533 11.8891 119.69 11.8891 119.848 11.8798C120.003 11.8705 120.096 11.8659 120.135 11.8659C120.669 11.8659 121.113 11.8705 121.467 11.8798C121.822 11.8891 122.257 11.8746 122.772 11.8364C123.002 11.8178 123.211 11.7992 123.403 11.7791C123.575 11.7646 123.744 11.7259 123.905 11.6644C124.05 11.6068 124.171 11.5033 124.251 11.3699C124.347 11.1781 124.391 10.9642 124.378 10.7499Z" fill="white"/>
<path d="M48.3951 28.7284C48.2409 29.1968 48.1492 29.6836 48.1223 30.176C48.0748 30.7784 48.0174 31.3663 47.9502 31.9397C47.8969 32.4439 47.801 32.9427 47.6635 33.4307C47.5395 33.8508 47.3349 34.0615 47.0436 34.0615C46.8157 34.0615 46.6809 33.9701 46.6437 33.7888C46.6038 33.5615 46.5986 33.3295 46.6282 33.1006C46.6576 32.8232 46.6809 32.5225 46.701 32.197C46.7215 31.8843 46.6723 31.5709 46.5569 31.2795C46.4436 31.0322 46.245 30.8341 45.9974 30.7215C45.6855 30.5684 45.352 30.4639 45.0086 30.4116C44.6053 30.3423 44.1987 30.2947 43.7904 30.269C43.3595 30.24 42.9534 30.2256 42.5722 30.2256C42.2854 30.2256 42.0266 30.2256 41.7972 30.2395C41.5678 30.2535 41.3772 30.2535 41.2238 30.2535C41.0703 30.2535 40.9665 30.2535 40.8518 30.2395C40.796 30.2347 40.7399 30.2425 40.6876 30.2623C40.6352 30.2822 40.5881 30.3136 40.5496 30.3542C40.4412 30.4877 40.372 30.6487 40.3496 30.8192C40.2933 31.1456 40.2694 31.4769 40.2783 31.808L40.221 35.3061C40.1827 36.9893 40.1874 38.6714 40.2349 40.3525C40.2825 42.0336 40.2871 43.7158 40.2489 45.3989C40.2489 45.7089 40.2535 46.0147 40.2628 46.3165C40.2725 46.6245 40.3062 46.9312 40.3636 47.234C40.4597 47.7702 40.6989 48.1288 41.0812 48.3096C41.4607 48.4904 41.8677 48.6067 42.2854 48.6537L43.4168 48.7823C43.7516 48.8211 43.919 48.9544 43.919 49.1837C43.919 49.4937 43.8524 49.6565 43.7191 49.6719C43.5287 49.6935 43.3372 49.7028 43.1456 49.6998C42.38 49.6998 41.62 49.6761 40.8657 49.6286C40.1115 49.581 39.3515 49.5573 38.5859 49.5573C37.8977 49.5573 37.2142 49.581 36.5354 49.6286C35.8565 49.6761 35.1735 49.6998 34.4864 49.6998C34.3279 49.6995 34.1696 49.6902 34.0122 49.6719C33.8494 49.6518 33.7688 49.5371 33.7688 49.3279C33.7573 49.2356 33.7764 49.1421 33.8232 49.0618C33.8699 48.9814 33.9418 48.9187 34.0277 48.8831C34.2011 48.8159 34.3856 48.7817 34.5717 48.7823C34.6968 48.7863 34.822 48.7769 34.9452 48.7544C35.4003 48.7188 35.8486 48.6223 36.2781 48.4677C36.5797 48.3579 36.8433 48.1637 37.0375 47.9082C37.2218 47.6383 37.3397 47.3287 37.3816 47.0046C37.4443 46.5585 37.4727 46.1082 37.4668 45.6578V31.7677C37.4668 31.6716 37.4622 31.4949 37.4529 31.2377C37.4505 31.0597 37.4366 30.8821 37.411 30.706C37.3728 30.5345 37.1527 30.4152 36.7508 30.348C36.3245 30.2791 35.8932 30.2454 35.4613 30.2473H33.6867C33.2541 30.2461 32.8238 30.3088 32.4096 30.4333C31.9613 30.5813 31.5538 30.8317 31.2193 31.1648C31.0691 31.3484 30.944 31.5511 30.8473 31.7677C30.6923 32.0777 30.5373 32.3877 30.3606 32.7286C30.1839 33.0696 30.0197 33.3641 29.8585 33.6307C29.6973 33.8972 29.5764 34.0321 29.5004 34.0321C29.348 34.0438 29.196 34.0034 29.0696 33.9174C29.0152 33.861 28.9742 33.7932 28.9496 33.7189C28.9249 33.6446 28.9172 33.5657 28.927 33.4881C28.9464 33.045 29.0235 32.6063 29.1564 32.1831C29.3438 31.4254 29.4682 30.6535 29.5283 29.8753C29.5469 29.6645 29.5671 29.4398 29.5857 29.2011C29.6006 28.9815 29.6439 28.7648 29.7143 28.5564C29.7775 28.3781 29.884 28.2183 30.0243 28.0914C30.1839 27.9568 30.3895 27.8896 30.5978 27.9039C30.6472 27.9055 30.6953 27.9196 30.7379 27.9448C30.7804 27.97 30.8159 28.0055 30.8411 28.048C30.9077 28.1441 30.9961 28.2526 31.0844 28.3781C31.1951 28.516 31.3257 28.6366 31.4719 28.7361C31.674 28.8634 31.9073 28.9325 32.1461 28.9361C33.293 28.9939 34.4683 29.0373 35.6721 29.0663C36.8758 29.0952 38.0517 29.1091 39.1996 29.1081C40.1171 29.1081 41.0011 29.0988 41.8515 29.0802C42.7018 29.0616 43.5858 29.0518 44.5033 29.0508C44.7895 29.0508 45.0809 29.0461 45.3774 29.0368C45.6704 29.0281 45.9626 29.0043 46.2531 28.9655C46.4649 28.9352 46.6637 28.8455 46.8266 28.7067C46.9736 28.5733 47.106 28.4247 47.2218 28.2634C47.3365 28.1084 47.431 27.972 47.507 27.8481C47.5298 27.7968 47.5658 27.7525 47.6112 27.7196C47.6567 27.6866 47.71 27.6663 47.7658 27.6605C48.0913 27.6605 48.2959 27.7861 48.3858 28.034C48.4707 28.2572 48.4739 28.5031 48.3951 28.7284Z" fill="white"/>
<path d="M62.2448 38.592C62.2451 38.804 62.2062 39.0142 62.1301 39.212C62.061 39.4028 61.9356 39.5682 61.7705 39.6863C61.5871 39.8061 61.3687 39.8607 61.1505 39.8413C60.8357 39.8048 60.5375 39.6801 60.2903 39.4817C60.2124 39.4347 60.1448 39.3724 60.0916 39.2986C60.0383 39.2249 60.0005 39.1411 59.9804 39.0524C59.9323 38.8617 59.8796 38.6695 59.8254 38.4789C59.7735 38.3013 59.6963 38.1322 59.596 37.9767C59.5355 37.8998 59.4563 37.8396 59.366 37.8018C59.2756 37.7641 59.1772 37.7502 59.0799 37.7613C58.6873 37.7593 58.298 37.8325 57.933 37.9767C57.5845 38.1123 57.2565 38.2954 56.9581 38.5207C56.6827 38.7286 56.4491 38.9868 56.27 39.2817C56.1056 39.5389 56.016 39.8367 56.0111 40.1419V47.1086C56.0145 47.2343 56.0296 47.3593 56.0561 47.4822C56.0794 47.7657 56.1874 48.0357 56.366 48.2571C56.5241 48.4461 56.7257 48.594 56.9535 48.688C57.1953 48.787 57.452 48.8451 57.7129 48.86C57.9903 48.8786 58.2631 48.8879 58.5297 48.8879C58.7033 48.8879 58.7885 49.0599 58.7885 49.404C58.7964 49.4566 58.785 49.5103 58.7566 49.5553C58.7281 49.6003 58.6845 49.6335 58.6335 49.6489C58.5355 49.6759 58.4345 49.6899 58.3328 49.6908C57.8579 49.6912 57.3835 49.658 56.9132 49.5916C56.4435 49.5238 55.9695 49.4901 55.495 49.4908C54.9582 49.4904 54.4219 49.524 53.8893 49.5916C53.3562 49.6578 52.8194 49.6909 52.2821 49.6908C52.1399 49.6854 51.9996 49.6566 51.8667 49.6055C51.7929 49.5847 51.7284 49.5392 51.6841 49.4766C51.6398 49.4139 51.6184 49.338 51.6234 49.2614C51.6174 49.1766 51.6436 49.0927 51.6967 49.0263C51.7499 48.96 51.8261 48.9161 51.9101 48.9034C52.1008 48.8554 52.3116 48.8073 52.5409 48.7593C52.7758 48.7095 53.0026 48.6276 53.2151 48.5159C53.3317 48.4466 53.4301 48.3506 53.5023 48.2358C53.5745 48.121 53.6184 47.9908 53.6305 47.8557C53.706 47.4773 53.7542 47.0941 53.7746 46.7088C53.7932 46.3275 53.8025 45.9452 53.8025 45.5619C53.8025 44.8169 53.7979 44.1287 53.7886 43.4974C53.7777 42.8666 53.7746 42.1785 53.7746 41.433C53.7746 41.185 53.7746 40.9277 53.7591 40.658C53.7526 40.4023 53.7001 40.1497 53.6042 39.9125C53.5446 39.7091 53.4239 39.529 53.2585 39.3964C53.1139 39.2899 52.961 39.195 52.8013 39.1128C52.6572 39.0369 52.5239 38.9578 52.3999 38.8834C52.3391 38.8475 52.2878 38.7975 52.2503 38.7376C52.2128 38.6777 52.1902 38.6097 52.1845 38.5393C52.2239 38.4424 52.2949 38.3616 52.386 38.31C52.4805 38.2526 52.5673 38.2046 52.6432 38.1658C52.8339 38.0713 53.0199 37.9752 53.2027 37.8791C53.3856 37.783 53.5701 37.6792 53.7622 37.5691C53.9221 37.4772 54.0749 37.3736 54.2195 37.2591L54.7371 36.8577C54.9025 36.729 55.0748 36.6095 55.2532 36.4997C55.3938 36.4065 55.5521 36.3431 55.7182 36.3137C55.7413 36.3044 55.7664 36.3008 55.7912 36.3032C55.816 36.3057 55.8399 36.314 55.8608 36.3277C55.8969 36.3547 55.9352 36.3786 55.9755 36.399C56.0222 36.5083 56.051 36.6245 56.0607 36.743C56.0817 36.9143 56.0915 37.0867 56.0902 37.2591V38.1488C56.1088 38.0728 56.2452 37.938 56.4916 37.7474C56.7918 37.5231 57.1084 37.3216 57.4386 37.1445C57.8434 36.9244 58.2653 36.7373 58.7002 36.5849C59.1418 36.4262 59.6072 36.344 60.0765 36.3416C60.4374 36.3287 60.7962 36.4026 61.1226 36.5571C61.3833 36.688 61.6127 36.8735 61.7953 37.1011C61.9654 37.3168 62.088 37.5661 62.1549 37.8326C62.2149 38.0813 62.2451 38.3362 62.2448 38.592Z" fill="white"/>
<path d="M80.4218 47.4512C80.408 47.5385 80.3894 47.6249 80.366 47.7101C80.2254 48.302 79.8801 48.8252 79.3911 49.1871C78.9044 49.5555 78.3091 49.7518 77.6987 49.7451C77.0684 49.7451 76.5714 49.5446 76.2077 49.1437C75.8351 48.7257 75.5692 48.2237 75.4327 47.6806C75.2027 47.9875 74.938 48.2668 74.6438 48.5129C74.3182 48.7877 73.968 49.032 73.5977 49.2429C73.222 49.4599 72.8226 49.6331 72.4074 49.759C72.0221 49.8802 71.6209 49.9434 71.2171 49.9466C70.2427 49.9466 69.5592 49.6645 69.1666 49.1003C68.7739 48.5362 68.5781 47.8243 68.5792 46.9646C68.5763 46.5541 68.6909 46.1513 68.9093 45.8037C69.1344 45.442 69.4147 45.1178 69.74 44.8428C70.0738 44.5561 70.4376 44.3061 70.8249 44.0973C71.1824 43.9028 71.5514 43.7304 71.93 43.5812C72.5975 43.3332 73.204 43.1183 73.7496 42.9364C74.2951 42.7546 74.9115 42.5774 75.5986 42.4048V40.1978C75.5986 39.395 75.4508 38.7497 75.1553 38.262C74.8598 37.7743 74.2817 37.5305 73.421 37.5305C72.9438 37.5083 72.4692 37.612 72.0447 37.8311C71.4494 38.1641 71.0054 38.7136 70.8048 39.3655C70.7288 39.6336 70.6715 39.8305 70.6327 39.9684C70.5271 40.288 70.3148 40.5616 70.0314 40.7434C69.7367 40.9479 69.3858 41.0562 69.0271 41.0533C68.9418 41.065 68.8553 41.0431 68.7859 40.9922C68.7165 40.9413 68.6696 40.8654 68.6551 40.7806C68.6184 40.6156 68.5992 40.4473 68.5978 40.2784C68.5978 39.8196 68.7889 39.3469 69.1712 38.8602C69.5781 38.3471 70.0501 37.8891 70.5754 37.4979C71.1353 37.0807 71.7469 36.7379 72.395 36.4781C72.9552 36.2298 73.5586 36.0934 74.1711 36.0767C74.3393 36.0793 74.507 36.0933 74.6733 36.1185C74.8748 36.148 75.0794 36.182 75.2932 36.2192C75.4967 36.2564 75.6979 36.3045 75.8961 36.3634C76.0557 36.4077 76.2112 36.4652 76.3611 36.5354C76.9914 36.8609 77.383 37.2861 77.5359 37.811C77.6911 38.3831 77.7647 38.9743 77.7545 39.567C77.7545 40.2903 77.7452 41.0595 77.7266 41.8748C77.708 42.69 77.6981 43.4593 77.6971 44.1825C77.6971 44.3546 77.6971 44.6088 77.6832 44.942C77.6692 45.2752 77.6723 45.6208 77.6832 45.9742C77.694 46.3276 77.7111 46.6624 77.7405 46.9785C77.7428 47.2024 77.7958 47.4228 77.8955 47.6233C77.9696 47.7561 78.0933 47.8542 78.2396 47.8961C78.3899 47.9439 78.5468 47.968 78.7045 47.9674C78.8821 47.9744 79.0588 47.9399 79.2206 47.8666C79.3452 47.8061 79.4609 47.7289 79.5647 47.6372C79.6593 47.552 79.7461 47.4714 79.822 47.3939C79.8918 47.3212 79.9821 47.2714 80.0808 47.2513C80.3087 47.194 80.4218 47.2606 80.4218 47.4512ZM75.5846 43.7625C75.578 43.6424 75.564 43.5229 75.5428 43.4045C75.3707 43.4433 75.1693 43.4944 74.9399 43.5595C74.7105 43.6246 74.4749 43.7036 74.2378 43.7889C74.0006 43.8741 73.7728 43.9609 73.5496 44.0477C73.3264 44.1345 73.1343 44.2027 72.9622 44.2631C72.4441 44.4549 71.9636 44.7361 71.5425 45.0939C71.3325 45.2676 71.1651 45.4872 71.053 45.7357C70.941 45.9842 70.8874 46.2551 70.8962 46.5275C70.877 46.9957 71.0079 47.4578 71.2698 47.8465C71.5177 48.1905 71.9481 48.3626 72.5608 48.3626C72.9845 48.3568 73.4012 48.2539 73.779 48.0619C74.1601 47.8821 74.5052 47.6342 74.7973 47.3304C74.9872 47.127 75.1507 46.9005 75.2839 46.6562C75.4323 46.4262 75.5301 46.1673 75.5707 45.8967C75.568 45.8061 75.5727 45.7154 75.5846 45.6255C75.592 45.5923 75.5966 45.5586 75.5986 45.5247V44.2631C75.6027 44.0772 75.5981 43.9103 75.5846 43.7625Z" fill="white"/>
<path d="M90.8881 37.0716C90.8881 38.7919 90.8834 40.4885 90.8741 42.1614C90.8648 43.8342 90.8596 45.5308 90.8586 47.2512C90.8586 47.8629 90.8447 48.4937 90.8168 49.1436C90.7889 49.7935 90.7372 50.4243 90.6618 51.036C90.5326 52.1826 90.0854 53.2702 89.3707 54.1761C88.6601 55.0665 87.8279 55.8527 86.8987 56.5117C86.7563 56.6202 86.6084 56.7211 86.4554 56.814C86.3074 56.9193 86.1341 56.9834 85.9532 57H85.8959C85.8571 56.9225 85.8246 56.845 85.7951 56.7845C85.7648 56.7147 85.7211 56.6515 85.6665 56.5985C85.7043 56.5208 85.7523 56.4483 85.8091 56.3831C85.8664 56.3165 85.9238 56.2436 85.9811 56.1677C86.3066 55.7843 86.6269 55.4165 86.9421 55.0641C87.2704 54.6922 87.5544 54.2834 87.7883 53.8459C88.0487 53.3478 88.2415 52.8172 88.3618 52.2682C88.4773 51.7251 88.5539 51.1746 88.5911 50.6206C88.6283 50.0565 88.6438 49.4923 88.6345 48.9282C88.6252 48.364 88.619 47.8061 88.619 47.2512C88.619 46.2179 88.6242 45.1811 88.6345 44.1406C88.6449 43.1001 88.6495 42.0627 88.6485 41.0284C88.6485 40.8192 88.6485 40.5464 88.6345 40.2116C88.6409 39.95 88.5879 39.6904 88.4795 39.4522C88.3819 39.2405 88.2152 39.0684 88.0068 38.964C87.8178 38.8736 87.6206 38.8014 87.4179 38.7485C87.2272 38.702 87.0598 38.654 86.9173 38.606C86.8518 38.5891 86.7943 38.5497 86.755 38.4947C86.7156 38.4398 86.6968 38.3727 86.7018 38.3053C86.704 38.2468 86.7177 38.1893 86.7422 38.1361C86.7667 38.0829 86.8014 38.035 86.8444 37.9953C86.9591 37.9194 87.204 37.7861 87.576 37.5939C87.9479 37.4017 88.3509 37.2033 88.7663 36.9925C89.1816 36.7817 89.5738 36.5957 89.9271 36.433C90.1382 36.3182 90.3656 36.2361 90.6013 36.1897C90.6502 36.1871 90.699 36.1962 90.7437 36.2161C90.7885 36.236 90.8278 36.2663 90.8586 36.3044C90.8586 36.4377 90.8586 36.5663 90.8741 36.6918C90.8896 36.8174 90.8881 36.9429 90.8881 37.0716ZM91.1453 29.4771C91.1496 29.6835 91.1126 29.8887 91.0365 30.0806C90.9603 30.2725 90.8467 30.4473 90.7021 30.5946C90.5607 30.7451 90.3893 30.8643 90.1989 30.9444C90.0085 31.0245 89.8035 31.0637 89.597 31.0596C89.1981 31.0471 88.819 30.8831 88.5368 30.6009C88.2546 30.3187 88.0905 29.9396 88.0781 29.5407C88.0683 29.1257 88.2226 28.7236 88.5074 28.4217C88.6449 28.2715 88.8127 28.1524 88.9998 28.0722C89.1868 27.992 89.3889 27.9527 89.5924 27.9567C89.796 27.9513 89.9986 27.9867 90.1883 28.0607C90.3781 28.1347 90.5512 28.2458 90.6974 28.3876C90.8437 28.5274 90.9592 28.6963 91.0363 28.8834C91.1135 29.0705 91.1506 29.2717 91.1453 29.474V29.4771Z" fill="white"/>
<path d="M111.102 47.4512C111.088 47.5386 111.069 47.625 111.045 47.7101C110.904 48.3022 110.559 48.8255 110.07 49.1871C109.584 49.5555 108.989 49.7518 108.379 49.7451C107.747 49.7451 107.25 49.5446 106.888 49.1437C106.515 48.7256 106.249 48.2237 106.113 47.6806C105.883 47.9879 105.618 48.2672 105.324 48.5129C104.999 48.7884 104.649 49.0328 104.278 49.2429C103.903 49.4599 103.504 49.6331 103.089 49.759C102.704 49.8801 102.303 49.9433 101.899 49.9466C100.924 49.9466 100.241 49.6645 99.8482 49.1003C99.4555 48.5362 99.2597 47.8243 99.2608 46.9646C99.2584 46.5543 99.3723 46.1518 99.5894 45.8037C99.8155 45.4423 100.096 45.1182 100.422 44.8428C100.755 44.5561 101.119 44.3061 101.507 44.0973C101.863 43.9028 102.232 43.7305 102.61 43.5812C103.28 43.3332 103.887 43.1183 104.431 42.9364C104.976 42.7546 105.592 42.5774 106.28 42.4048V40.1978C106.28 39.395 106.132 38.7497 105.835 38.262C105.539 37.7743 104.961 37.5305 104.103 37.5305C103.625 37.5085 103.151 37.6122 102.726 37.8311C102.407 38.0109 102.129 38.2553 101.91 38.5487C101.725 38.7949 101.584 39.0713 101.494 39.3655C101.417 39.6336 101.359 39.8305 101.322 39.9684C101.216 40.2882 101.003 40.5617 100.719 40.7434C100.425 40.948 100.075 41.0564 99.7164 41.0533C99.631 41.065 99.5443 41.0432 99.4746 40.9923C99.405 40.9414 99.3578 40.8655 99.3429 40.7806C99.3063 40.6156 99.287 40.4473 99.2856 40.2784C99.2856 39.8196 99.4767 39.3469 99.859 38.8602C100.267 38.3474 100.739 37.8895 101.265 37.4979C101.821 37.0814 102.429 36.7386 103.073 36.4781C103.634 36.2297 104.238 36.0934 104.851 36.0767C105.019 36.0794 105.187 36.0934 105.353 36.1185C105.555 36.148 105.759 36.182 105.973 36.2192C106.176 36.2564 106.377 36.3045 106.575 36.3634C106.734 36.4077 106.89 36.4652 107.04 36.5354C107.671 36.8609 108.063 37.2861 108.216 37.811C108.373 38.3829 108.449 38.974 108.442 39.567C108.442 40.2903 108.432 41.0595 108.413 41.8748C108.393 42.69 108.384 43.4593 108.385 44.1825C108.385 44.3546 108.385 44.6088 108.371 44.942C108.357 45.2752 108.36 45.6208 108.371 45.9742C108.382 46.3276 108.399 46.6624 108.428 46.9785C108.432 47.2023 108.484 47.4225 108.583 47.6233C108.657 47.7561 108.781 47.8542 108.927 47.8961C109.078 47.9438 109.235 47.9678 109.392 47.9674C109.57 47.9747 109.747 47.9402 109.908 47.8666C110.033 47.8061 110.149 47.7289 110.253 47.6372C110.349 47.552 110.434 47.4714 110.511 47.3939C110.581 47.3213 110.67 47.2715 110.769 47.2513C110.991 47.1986 111.102 47.2653 111.102 47.4512ZM106.272 43.7625C106.265 43.6424 106.251 43.5228 106.229 43.4045C106.057 43.4433 105.857 43.4944 105.628 43.5595C105.398 43.6246 105.163 43.7036 104.924 43.7889C104.685 43.8741 104.459 43.9609 104.237 44.0477C104.016 44.1345 103.821 44.2027 103.648 44.2631C103.131 44.4549 102.651 44.7361 102.23 45.0939C102.02 45.2676 101.853 45.4872 101.741 45.7357C101.629 45.9842 101.575 46.2551 101.584 46.5275C101.564 46.9958 101.695 47.4582 101.958 47.8465C102.206 48.1905 102.635 48.3626 103.247 48.3626C103.671 48.3569 104.088 48.2541 104.465 48.0619C104.847 47.8825 105.192 47.6345 105.484 47.3304C105.674 47.1274 105.839 46.9009 105.972 46.6562C106.119 46.4259 106.217 46.1671 106.258 45.8967C106.256 45.8061 106.261 45.7154 106.272 45.6255C106.28 45.5923 106.284 45.5586 106.286 45.5247V44.2631C106.285 44.0772 106.281 43.9103 106.272 43.7625Z" fill="white"/>
<path d="M127.961 38.592C127.962 38.804 127.923 39.0142 127.847 39.212C127.778 39.4027 127.653 39.5681 127.489 39.6863C127.305 39.8058 127.087 39.8603 126.869 39.8412C126.554 39.8042 126.256 39.6796 126.009 39.4817C125.932 39.4341 125.866 39.3715 125.814 39.2977C125.763 39.224 125.727 39.1405 125.708 39.0523C125.66 38.8617 125.607 38.6695 125.553 38.4789C125.502 38.3011 125.424 38.1318 125.324 37.9767C125.263 37.8998 125.184 37.8395 125.094 37.8018C125.003 37.7641 124.905 37.7502 124.807 37.7613C124.415 37.7593 124.026 37.8324 123.661 37.9767C123.312 38.1127 122.984 38.2957 122.686 38.5207C122.41 38.7286 122.177 38.9868 121.998 39.2817C121.834 39.5394 121.745 39.837 121.74 40.1419V47.1086C121.739 47.2338 121.749 47.3589 121.771 47.4822C121.792 47.7647 121.897 48.0346 122.072 48.2571C122.231 48.4458 122.433 48.5936 122.661 48.688C122.903 48.787 123.159 48.8451 123.42 48.86C123.698 48.8786 123.969 48.8879 124.237 48.8879C124.409 48.8879 124.496 49.0599 124.496 49.404C124.503 49.4566 124.492 49.5101 124.464 49.555C124.435 49.5999 124.392 49.6332 124.341 49.6489C124.243 49.6757 124.142 49.6898 124.04 49.6907C123.565 49.6913 123.091 49.6581 122.621 49.5915C122.15 49.5238 121.676 49.4901 121.201 49.4908C120.664 49.4904 120.128 49.524 119.595 49.5915C119.063 49.6578 118.526 49.6909 117.99 49.6907C117.847 49.6857 117.707 49.6569 117.574 49.6055C117.499 49.579 117.435 49.5288 117.391 49.4625C117.347 49.3962 117.326 49.3174 117.331 49.2381C117.336 49.1587 117.367 49.0831 117.418 49.0228C117.47 48.9624 117.54 48.9205 117.618 48.9034C117.808 48.8554 118.019 48.8073 118.248 48.7593C118.483 48.7095 118.709 48.6276 118.921 48.5159C119.038 48.447 119.137 48.3511 119.209 48.2362C119.282 48.1214 119.326 47.991 119.338 47.8557C119.414 47.4774 119.461 47.0941 119.481 46.7088C119.499 46.3275 119.51 45.9447 119.51 45.5619C119.51 44.8169 119.505 44.1287 119.494 43.4974C119.484 42.8661 119.477 42.1795 119.474 41.4376C119.474 41.1896 119.474 40.9324 119.46 40.6627C119.454 40.4069 119.401 40.1544 119.305 39.9172C119.247 39.7136 119.127 39.5333 118.961 39.4011C118.821 39.2935 118.672 39.1971 118.517 39.1128C118.374 39.0369 118.239 38.9578 118.115 38.8834C118.055 38.8472 118.004 38.7971 117.967 38.7372C117.929 38.6774 117.907 38.6096 117.901 38.5393C117.939 38.4422 118.01 38.3612 118.101 38.31C118.197 38.2526 118.282 38.2046 118.36 38.1658C118.551 38.0713 118.737 37.9752 118.918 37.8791C119.099 37.783 119.287 37.6792 119.477 37.5691C119.64 37.4771 119.795 37.3735 119.942 37.2591L120.459 36.8577C120.62 36.7219 120.79 36.5951 120.965 36.478C121.106 36.385 121.264 36.3217 121.43 36.292C121.454 36.2824 121.479 36.2787 121.504 36.2811C121.529 36.2835 121.553 36.2921 121.574 36.306C121.61 36.3334 121.649 36.3572 121.689 36.3773C121.735 36.4868 121.764 36.6029 121.774 36.7213C121.795 36.8926 121.804 37.065 121.804 37.2374V38.1271C121.822 38.0511 121.959 37.9163 122.205 37.7257C122.505 37.5014 122.821 37.2999 123.151 37.1227C123.556 36.903 123.978 36.7159 124.412 36.5632C124.854 36.4045 125.319 36.3223 125.789 36.3199C126.149 36.307 126.508 36.3808 126.835 36.5353C127.096 36.6663 127.326 36.8518 127.509 37.0794C127.679 37.2952 127.801 37.5445 127.867 37.8109C127.93 38.0664 127.962 38.3288 127.961 38.592Z" fill="white"/>
</svg>
