<svg width="36" height="30" viewBox="0 0 36 30" fill="none" xmlns="http://www.w3.org/2000/svg">
<path d="M36 7.957H33.7456V5.7026H30.364V3.37775H30.9628V2.321H29.2368V0.594971H28.18V2.321H26.454V3.37775H27.0528V5.7026H23.636V6.75935H32.6888V12.4658H12.7088L9.32717 15.8474H3.31115V6.75935H22.5088V5.7026H6.69276V3.97657H5.63601V5.7026H2.2544V16.9042H4.50881V20.2858H5.63601V22.0118H6.69276V20.2858H8.98239V19.229H7.81996V16.9042H9.76481L13.1464 13.5226H23.6712V23.7378H15.182V24.7946H23.6712V28.2466H1.05675V24.7946H3.3816V27.049H11.2016V24.7946H14.0548V23.7378H0V29.3034H33.7456V15.777H36V7.957ZM28.1096 3.37775H29.3072V5.7026H28.1096V3.37775ZM6.76321 19.229H5.56556V16.9042H6.76321V19.229ZM10.1448 25.9922H4.43836V24.7946H10.1448V25.9922ZM24.728 28.2466V13.5226H32.6888V28.2466H24.728ZM34.9432 14.7202H33.7456V9.01376H34.9432V14.7202Z" fill="#014561"/>
</svg>
